<?xml version="1.0" encoding="UTF-8" standalone="no"?><!DOCTYPE svg PUBLIC "-//W3C//DTD SVG 1.1//EN" "http://www.w3.org/Graphics/SVG/1.1/DTD/svg11.dtd"><svg width="978" height="784" viewBox="0 0 978 784" xmlns="http://www.w3.org/2000/svg" xmlns:xlink="http://www.w3.org/1999/xlink"><svg viewBox="-2 -2 40 35" fill-rule="evenodd" clip-rule="evenodd" stroke-linecap="round" stroke-linejoin="round" stroke-miterlimit="1.5" width="40" height="35" id="ask" y="709" xmlns="http://www.w3.org/2000/svg"><g fill="none" stroke="#333" stroke-width="1.8"><path d="M6.979 7.404h12.396M6.979 10.351h12.396M6.979 13.298h6.831M8.281 20.094v5.557l5.529-5.557"/><path d="M13.81 20.094h3.729a8.014 8.014 0 0 0 8.01-8.01v-2.86a8.014 8.014 0 0 0-8.01-8.01H9.703a8.014 8.014 0 0 0-8.011 8.01v2.86c0 4.421 2.876 7.946 6.589 8.01M29.535 25.066v4.148l-4.127-4.148M25.408 25.066h-2.783c-3.299 0-5.97-.379-5.97-2.193"/><path d="M28.473 10.975c3.3 0 5.979 2.679 5.979 5.979v2.134c0 3.299-2.146 5.93-4.917 5.978"/></g></svg><svg width="16" height="16" viewBox="-2 -2 16 16" id="black-cross" x="619" y="640" xmlns="http://www.w3.org/2000/svg"><defs><style>.abcls-1{fill:#333;fill-rule:evenodd}</style></defs><path class="abcls-1" d="M6.69 6l5.17 5.172a.484.484 0 0 1 0 .686.5.5 0 0 1-.35.142.492.492 0 0 1-.34-.142L6 6.685.827 11.858a.485.485 0 0 1-.685-.686L5.31 6 .142.827A.484.484 0 0 1 .827.142L6 5.314 11.17.142a.489.489 0 0 1 .69 0 .483.483 0 0 1 0 .685z"/></svg><svg viewBox="-2 -2 47 47" fill-rule="evenodd" clip-rule="evenodd" stroke-linejoin="round" stroke-miterlimit="1.414" width="47" height="47" id="bulb-model" x="271" y="640" xmlns="http://www.w3.org/2000/svg"><g fill-rule="nonzero"><path d="M33.25 39.026l-.72-1.097c5.567-3.658 8.891-9.831 8.891-16.514 0-10.856-8.832-19.687-19.687-19.687-10.856 0-19.688 8.831-19.688 19.687 0 6.683 3.324 12.856 8.892 16.514l-.721 1.097C4.279 35.124.734 28.54.734 21.415c0-11.579 9.42-21 21-21 11.579 0 21 9.421 21 21 0 7.125-3.545 13.709-9.484 17.611" fill="#363f40"/><path fill="#363f40" d="M13.859 38.478h15.75v1.312h-15.75zM13.859 41.103h15.75v1.312h-15.75z"/><path fill="#363f40" d="M19.109 31.259h1.312v7.875h-1.312zM23.046 31.259h1.312v7.875h-1.312z"/><path d="M21.734 15.509a5.912 5.912 0 0 0-5.906 5.906 5.912 5.912 0 0 0 5.906 5.906 5.912 5.912 0 0 0 5.906-5.906 5.912 5.912 0 0 0-5.906-5.906m0 13.125c-3.98 0-7.219-3.239-7.219-7.219 0-3.98 3.239-7.219 7.219-7.219 3.98 0 7.219 3.239 7.219 7.219 0 3.98-3.239 7.219-7.219 7.219" fill="red"/><path d="M23.895 7.442l-2.161-2.161-2.161 2.161-.928-.928 2.625-2.625a.655.655 0 0 1 .928 0l2.625 2.625-.928.928zM36.635 24.504l-.928-.928 2.161-2.161-2.161-2.161.928-.928 2.625 2.625a.655.655 0 0 1 0 .928l-2.625 2.625zM6.832 24.504l-2.625-2.625a.657.657 0 0 1 0-.928l2.625-2.625.928.928-2.161 2.161 2.161 2.161-.928.928z" fill="#363f40"/><path d="M13.859 33.884H9.921a.656.656 0 0 1-.656-.656V29.29h1.313v3.281h3.281v1.313zM34.203 13.54H32.89v-3.281h-3.281V8.946h3.937c.363 0 .657.294.657.657v3.937zM33.546 33.884h-3.937v-1.313h3.281V29.29h1.313v3.938a.656.656 0 0 1-.657.656M10.578 13.54H9.265V9.603c0-.363.294-.657.656-.657h3.938v1.313h-3.281v3.281z" fill="red"/><path fill="#363f40" d="M18.453 20.759h1.312v1.312h-1.312zM21.078 20.759h1.312v1.312h-1.312zM23.703 20.759h1.312v1.312h-1.312z"/><path d="M27.64 39.134h-1.312v-7.875c0-.24.131-.462.342-.577 3.432-1.864 5.564-5.415 5.564-9.267 0-5.789-4.711-10.5-10.5-10.5-5.79 0-10.5 4.711-10.5 10.5 0 3.883 2.13 7.433 5.559 9.265a.656.656 0 0 1 .347.579v7.875h-1.312v-7.489a11.797 11.797 0 0 1-5.907-10.23c0-6.513 5.3-11.812 11.813-11.812 6.513 0 11.812 5.299 11.812 11.812 0 4.203-2.253 8.086-5.906 10.227v7.492z" fill="#363f40"/></g></svg><svg width="17" height="18" viewBox="-2 -2 17 18" id="clip" x="602" y="640" xmlns="http://www.w3.org/2000/svg"><defs><style>.adcls-1{fill:#f2264d;fill-rule:evenodd}</style></defs><path id="adForma_1" data-name="Forma 1" class="adcls-1" d="M758.071 614.327l-5.395-5.322a1.863 1.863 0 0 0-1.383-.578 1.766 1.766 0 0 0-1.291.523 1.719 1.719 0 0 0-.529 1.273 1.814 1.814 0 0 0 .585 1.365l3.807 3.756a.283.283 0 0 0 .2.092.8.8 0 0 0 .436-.284.787.787 0 0 0 .288-.431.278.278 0 0 0-.093-.2l-3.807-3.756a.781.781 0 0 1-.232-.541.592.592 0 0 1 .177-.44.607.607 0 0 1 .445-.174.8.8 0 0 1 .558.22l5.394 5.323a1.811 1.811 0 0 1 .586 1.328 1.306 1.306 0 0 1-.39.971 1.346 1.346 0 0 1-.985.385 1.862 1.862 0 0 1-1.346-.577l-7.206-7.119a2.25 2.25 0 0 1-.705-1.658 2.274 2.274 0 0 1 .677-1.658 2.246 2.246 0 0 1 1.663-.687 2.356 2.356 0 0 1 1.68.705l5.627 5.561a.3.3 0 0 0 .214.092.793.793 0 0 0 .432-.28.776.776 0 0 0 .283-.426.278.278 0 0 0-.093-.2l-5.618-5.552a3.52 3.52 0 0 0-2.531-1.038 3.406 3.406 0 0 0-2.5 1.017 3.36 3.36 0 0 0-1.019 2.474 3.406 3.406 0 0 0 1.049 2.483l7.215 7.109a3.006 3.006 0 0 0 2.182.917 2.49 2.49 0 0 0 1.82-.724 2.423 2.423 0 0 0 .734-1.8 2.89 2.89 0 0 0-.929-2.149z" transform="translate(-746 -605)"/></svg><svg preserveAspectRatio="xMidYMid" width="27" height="25" viewBox="-2 -2 27 25" id="contact-fax" x="478" y="640" xmlns="http://www.w3.org/2000/svg"><defs><style>.aecls-2{fill:#797979}</style></defs><path d="M21 12.011c-.49 0-.379-.036-1 0v6.998c0 .24-.612 1-.852 1H3.96c-.24 0-.96-.76-.96-1v-6.998c-.326-.099-.51 0-1 0-1.196 0-2-.856-2-2.056V2.136C0 .937 1.028.015 2.225.015h18.658C22.08.015 23 .937 23 2.136v7.819c0 1.2-.804 2.056-2 2.056zM4 10.012v8.997h15v-8.997-3.999c0-.24-.009-1.031 0-1H5c-.241 0-1 .073-1 0v4.999zm18 0V2.014c0-.72-.282-1-1-1H2c-.718 0-1 .28-1 1v7.998c0 .72.094.937 1 1 .716.049 1-.282 1-1V6.013v-1-.999h17v5.998c0 .718.282 1 1 1s1.132-.336 1.132-1.057l-.132.057zm-9.849-2.173h-6.51v-.87h6.51v.87zm2.17 3.042h-8.68v-.869h8.68v.869zm0 3.043h-8.68v-.869h8.68v.869z" id="aepath-1" class="aecls-2" fill-rule="evenodd"/></svg><svg preserveAspectRatio="xMidYMid" width="22" height="27" viewBox="-2 -2 22 27" id="contact-location" x="74" y="709" xmlns="http://www.w3.org/2000/svg"><defs><style>.afcls-2{fill:#666}</style></defs><path d="M17.836 11.053a9.355 9.355 0 0 1-.665 2.136c-.92 2.245-2.948 5.736-7.344 9.505a1.27 1.27 0 0 1-.825.306c-.3 0-.592-.108-.824-.306-4.401-3.774-6.429-7.26-7.353-9.524a9.082 9.082 0 0 1-.602-1.825 9.672 9.672 0 0 1-.182-2.96C.469 3.769 4.182.165 8.674.005 8.779 0 8.888 0 8.993 0 13.954 0 17.991 4.169 18 9.288c0 .593-.055 1.186-.164 1.765zM8.715 1.157c-3.936.142-7.184 3.299-7.562 7.341a8.562 8.562 0 0 0 .104 2.339c0 .009.005.018.005.028.005.023.018.099.046.221.123.56.3 1.101.533 1.618.883 2.16 2.82 5.478 7.043 9.101a.187.187 0 0 0 .114.042.18.18 0 0 0 .114-.042c4.223-3.619 6.154-6.936 7.034-9.082a8.635 8.635 0 0 0 .537-1.632 8.676 8.676 0 0 0 .192-1.798c0-4.588-3.691-8.295-8.16-8.136zm.278 13.049c-2.569 0-4.656-2.165-4.656-4.814s2.087-4.809 4.656-4.809c2.57 0 4.656 2.164 4.656 4.814 0 2.649-2.086 4.809-4.656 4.809zm0-8.465c-1.95 0-3.54 1.642-3.54 3.656 0 2.014 1.586 3.656 3.54 3.656 1.955 0 3.54-1.642 3.54-3.656 0-2.014-1.59-3.656-3.54-3.656z" id="afpath-1" class="afcls-2" fill-rule="evenodd"/></svg><svg preserveAspectRatio="xMidYMid" width="27" height="20" viewBox="-2 -2 27 20" id="contact-mail" x="505" y="640" xmlns="http://www.w3.org/2000/svg"><defs><style>.agcls-2{fill:#6f6f6f}</style></defs><path d="M23 2.027c0-.521-.194-.993-.504-1.352-.005-.007-.006-.016-.012-.023-.005-.006-.012-.009-.018-.014A1.877 1.877 0 0 0 21.067 0H1.933a1.88 1.88 0 0 0-1.4.638C.527.643.52.646.515.653.509.659.508.668.503.675A2.07 2.07 0 0 0 0 2.027v11.946c0 .534.202 1.016.525 1.379.006.007.008.017.015.024l.008.005c.351.381.841.619 1.385.619h19.134c.544 0 1.034-.239 1.385-.619l.008-.005c.006-.007.008-.016.015-.023a2.07 2.07 0 0 0 .525-1.38V2.027zm-7.528 5.342L22.1 1.537c.065.149.103.315.103.49v11.946c0 .158-.031.309-.084.447l-6.647-7.051zM21.067.835c.167 0 .324.041.467.109L11.5 9.773 1.465.944a1.09 1.09 0 0 1 .468-.109h19.134zM.881 14.42a1.246 1.246 0 0 1-.084-.447V2.027c0-.175.038-.341.103-.49l6.628 5.832L.881 14.42zm1.052.744c-.184 0-.355-.05-.509-.132l6.717-7.125 3.103 2.731a.387.387 0 0 0 .256.098.387.387 0 0 0 .256-.098l3.103-2.731 6.717 7.125a1.077 1.077 0 0 1-.509.132H1.933z" id="agpath-1" class="agcls-2" fill-rule="evenodd"/></svg><svg preserveAspectRatio="xMidYMid" width="24" height="24" viewBox="-2 -2 24 24" id="contact-phone" x="96" y="709" xmlns="http://www.w3.org/2000/svg"><defs><style>.ahcls-2{fill:#5f5f5f}</style></defs><path d="M19.526 9.473c-.034.004-.063.008-.097.008a.566.566 0 0 1-.562-.473 9.56 9.56 0 0 0-2.693-5.188 9.61 9.61 0 0 0-5.196-2.688.568.568 0 1 1 .186-1.123 10.73 10.73 0 0 1 5.813 3.009 10.706 10.706 0 0 1 3.014 5.804.56.56 0 0 1-.465.651zm-8.518-5.838a6.527 6.527 0 0 1 3.53 1.827 6.508 6.508 0 0 1 1.83 3.525.57.57 0 0 1-.469.659c-.034.004-.063.008-.097.008a.566.566 0 0 1-.562-.473 5.383 5.383 0 0 0-1.514-2.912 5.365 5.365 0 0 0-2.917-1.512.563.563 0 0 1-.46-.658.572.572 0 0 1 .659-.464zM7.22 7.396c-.312.316-.634.645-.98.962.257.57.613 1.131 1.141 1.798 1.091 1.338 2.228 2.373 3.479 3.166.123.076.266.148.419.224.105.055.215.11.325.169l1.336-1.33c.427-.426.926-.65 1.446-.65.524 0 1.019.228 1.429.654l2.32 2.326c.427.422.651.925.651 1.448 0 .519-.219 1.026-.638 1.46-.182.19-.368.372-.549.545-.267.257-.521.498-.74.764-.005.008-.013.013-.017.021-.643.697-1.463 1.047-2.439 1.047-.085 0-.178-.004-.267-.009-1.45-.092-2.748-.637-3.72-1.097a19.884 19.884 0 0 1-6.624-5.179C2.266 11.883 1.243 10.173.558 8.329c-.279-.752-.643-1.9-.541-3.132a3.086 3.086 0 0 1 .917-1.963l1.438-1.448.008-.009c.423-.405.922-.62 1.437-.62.516 0 1.006.215 1.416.62.275.254.542.524.795.786.127.135.262.27.393.4l1.154 1.153c.888.886.888 2.034 0 2.921-.118.118-.236.241-.355.359zm-.448-2.474L5.618 3.77c-.135-.14-.27-.275-.401-.41a20.753 20.753 0 0 0-.761-.755l-.013-.013c-.135-.135-.351-.295-.617-.295-.216 0-.436.105-.643.299l-1.441 1.44c-.351.35-.541.759-.584 1.253-.063.773.081 1.592.474 2.643.638 1.722 1.602 3.326 3.043 5.061a18.764 18.764 0 0 0 6.24 4.879c.875.418 2.042.908 3.297.988.064.004.131.004.195.004.659 0 1.162-.215 1.589-.671.262-.308.541-.582.816-.844.182-.177.351-.338.516-.515.431-.447.431-.891-.004-1.321l-2.33-2.326-.008-.008c-.131-.144-.347-.309-.609-.309-.266 0-.494.174-.638.317l-1.446 1.444c-.072.071-.292.291-.642.291a.916.916 0 0 1-.419-.106c-.017-.008-.034-.021-.051-.029a5.284 5.284 0 0 0-.418-.224 5.585 5.585 0 0 1-.52-.283c-1.357-.857-2.587-1.975-3.754-3.41l-.004-.005c-.643-.814-1.066-1.498-1.366-2.224l-.012-.038c-.076-.241-.144-.595.219-.958.005-.009.013-.013.022-.021.367-.33.706-.667 1.061-1.03.122-.118.241-.241.363-.363.448-.448.448-.861 0-1.309z" id="ahpath-1" class="ahcls-2" fill-rule="evenodd"/></svg><svg viewBox="-2 -2 47 47" fill-rule="evenodd" clip-rule="evenodd" stroke-linejoin="round" stroke-miterlimit="1.414" width="47" height="47" id="dimension-cube" x="224" y="640" xmlns="http://www.w3.org/2000/svg"><g fill-rule="nonzero"><path d="M21.561 2.236c-10.855 0-19.687 8.832-19.687 19.688 0 10.856 8.832 19.687 19.687 19.687 10.856 0 19.688-8.831 19.688-19.687 0-10.856-8.832-19.688-19.688-19.688m0 40.688c-11.579 0-21-9.421-21-21 0-11.58 9.421-21 21-21s21 9.42 21 21c0 11.579-9.421 21-21 21" fill="#363f40"/><path d="M21.561 35.049a.662.662 0 0 1-.348-.1l-8.531-5.332.696-1.113 7.527 4.705V22.944l-9.188-5.743v8.004h-1.312v-9.187a.657.657 0 0 1 1.004-.557l10.5 6.563c.192.12.308.33.308.556v11.813a.654.654 0 0 1-.656.656" fill="#363f40"/><path d="M21.561 35.049a.65.65 0 0 1-.317-.083.653.653 0 0 1-.339-.573V22.58c0-.226.117-.436.308-.556l10.5-6.563a.657.657 0 0 1 1.004.557v9.187h-1.312v-8.004l-9.188 5.743v10.265l7.528-4.705.695 1.113-8.531 5.332a.657.657 0 0 1-.348.1" fill="#363f40"/><path d="M21.561 23.236a.66.66 0 0 1-.348-.099l-10.5-6.563a.657.657 0 0 1 0-1.113l8.532-5.332.695 1.113-7.64 4.776 9.261 5.788 9.262-5.788-7.641-4.776.696-1.113 8.531 5.332a.656.656 0 0 1 0 1.113l-10.5 6.563a.658.658 0 0 1-.348.099M6.748 30.392l-.561-1.187 12.469-5.906.561 1.187-12.469 5.906z" fill="#363f40"/><path d="M10.803 32.371l-4.594-1.969a.657.657 0 0 1-.373-.784l1.313-4.593 1.263.36-1.155 4.038 4.062 1.741-.516 1.207zM36.374 30.392l-12.468-5.906.561-1.187 12.468 5.906-.561 1.187z" fill="#363f40"/><path d="M32.32 32.371l-.517-1.207 4.062-1.741-1.153-4.038 1.262-.36 1.312 4.593a.656.656 0 0 1-.373.784l-4.593 1.969zM20.905 4.861h1.313v14.438h-1.313z" fill="#363f40"/><path d="M25.078 8.647l-3.517-2.931-3.517 2.931-.841-1.008 3.938-3.282a.655.655 0 0 1 .84 0l3.938 3.282-.841 1.008z" fill="#363f40"/><path d="M21.561 15.361a6.57 6.57 0 0 0-6.562 6.563 6.57 6.57 0 0 0 6.562 6.562 6.57 6.57 0 0 0 6.563-6.562 6.57 6.57 0 0 0-6.563-6.563m0 14.438c-4.342 0-7.875-3.533-7.875-7.875 0-4.343 3.533-7.875 7.875-7.875 4.343 0 7.875 3.532 7.875 7.875 0 4.342-3.532 7.875-7.875 7.875" fill="red"/></g></svg><svg viewBox="-2 -2 29 29" fill-rule="evenodd" clip-rule="evenodd" stroke-linejoin="round" stroke-miterlimit="1.414" width="29" height="29" id="elephant" x="449" y="640" xmlns="http://www.w3.org/2000/svg"><circle cx="12.7" cy="12.83" r="12.002" fill="#f2264d"/><path d="M11.801 14.137c-.317-1.267-.792-2.376.159-3.485.95-1.108 3.801-1.425 5.226-.079-.871.475-1.346 1.346-1.346 2.376 0 .317.079.633.158.95h-.237c-.871.079-2.455.079-3.96.238z" fill="#fff" fill-opacity=".5" fill-rule="nonzero"/><path d="M14.652 11.84c1.822 1.822 2.218 4.435 1.267 6.652-.95-.158-1.9-.237-2.851-.316.238-1.268-.158-2.614-1.108-3.643-1.584-1.584-4.198-1.584-5.781 0a4.186 4.186 0 0 0-1.109 3.88h-.159c-.95-2.217-.554-4.831 1.268-6.652 2.217-2.297 6.097-2.297 8.473.079z" fill="#fff" fill-rule="nonzero"/><path d="M12.435 15.087c-.951-1.267-.951-3.089.237-4.276 1.267-1.267 3.406-1.267 4.673 0s1.267 3.405 0 4.672c-.317.317-.634.475-.951.634 0 0 0 .395-.079.791 1.188 0 2.297-.554 3.247-1.425a4.875 4.875 0 0 0 0-6.89 4.877 4.877 0 0 0-6.89 0c-1.742 1.742-1.821 4.514-.237 6.494z" fill="#fff" fill-rule="nonzero"/><path d="M4.991 18.413c-.317-1.346 0-2.851 1.108-3.88a4.09 4.09 0 0 1 5.702-.08c-.871.476-1.504 1.505-1.504 2.535 0 .396.079.712.158 1.029h-.238c-1.821.079-3.563.159-5.226.396z" fill="#fff" fill-opacity=".5" fill-rule="nonzero"/></svg><svg viewBox="-2 -2 36 37" fill-rule="evenodd" clip-rule="evenodd" stroke-linecap="round" stroke-linejoin="round" stroke-miterlimit="1.5" width="36" height="37" id="file-empty" x="115" y="744" xmlns="http://www.w3.org/2000/svg"><path d="M24.218 29.228v2.68H1.484V1.91h18.252v4.948h4.482v5.167" fill="none" stroke="gray" stroke-width="2"/><path d="M19.736 1.91l4.482 4.948h-4.482V1.91z" fill="gray" stroke="gray" stroke-width="2"/><path d="M31.64 16.422c0-.761-.617-1.378-1.379-1.378h-19.65c-.762 0-1.379.617-1.379 1.378v9.087c0 .762.617 1.379 1.379 1.379h19.65c.762 0 1.379-.617 1.379-1.379v-9.087z" fill="#f2264d"/></svg><svg viewBox="-2 -2 36 37" fill-rule="evenodd" clip-rule="evenodd" stroke-linecap="round" stroke-linejoin="round" stroke-miterlimit="1.5" width="36" height="37" id="file-pdf" x="79" y="744" xmlns="http://www.w3.org/2000/svg"><path d="M24.218 29.228v2.68H1.484V1.91h18.252v4.948h4.482v5.167" fill="none" stroke="gray" stroke-width="2"/><path d="M19.736 1.91l4.482 4.948h-4.482V1.91z" fill="gray" stroke="gray" stroke-width="2"/><path d="M31.64 16.422c0-.761-.617-1.378-1.379-1.378h-19.65c-.762 0-1.379.617-1.379 1.378v9.087c0 .762.617 1.379 1.379 1.379h19.65c.762 0 1.379-.617 1.379-1.379v-9.087z" fill="#f2264d"/><g fill="#fff" fill-rule="nonzero"><path d="M12.44 24.009v-6.087h1.972c.747 0 1.234.031 1.461.092.349.091.641.29.876.596.235.305.353.701.353 1.185 0 .374-.068.688-.203.942a1.667 1.667 0 0 1-.517.6 1.772 1.772 0 0 1-.638.289c-.293.058-.718.087-1.274.087h-.802v2.296H12.44zm1.228-5.057v1.727h.673c.484 0 .808-.032.972-.095a.816.816 0 0 0 .384-.299.825.825 0 0 0 .139-.473.784.784 0 0 0-.195-.548.85.85 0 0 0-.494-.27c-.147-.028-.442-.042-.885-.042h-.594zM18.107 17.922h2.246c.506 0 .893.039 1.158.117.357.105.663.292.918.56.254.269.448.597.581.986.133.389.199.869.199 1.439 0 .501-.062.933-.186 1.295-.153.443-.37.802-.652 1.076-.213.207-.501.369-.864.485-.271.086-.634.129-1.088.129h-2.312v-6.087zm1.229 1.03v4.032h.917c.343 0 .591-.02.743-.059.2-.049.365-.134.497-.253.131-.119.238-.315.321-.587.083-.273.125-.645.125-1.115 0-.471-.042-.832-.125-1.084a1.392 1.392 0 0 0-.348-.589 1.175 1.175 0 0 0-.569-.287c-.172-.038-.508-.058-1.009-.058h-.552zM24.26 24.009v-6.087h4.172v1.03h-2.943v1.441h2.541v1.029h-2.541v2.587H24.26z"/></g></svg><svg width="52" height="25" viewBox="-2 -2 52 25" id="gallery-thumb-arrow" x="223" y="603" xmlns="http://www.w3.org/2000/svg"><defs><style>.amcls-1{fill:#999;fill-rule:evenodd}</style></defs><path id="amForma_1" data-name="Forma 1" class="amcls-1" d="M1070.5 267.634a1.211 1.211 0 0 1 0 1.961 1.977 1.977 0 0 1-2.4 0l-21.1-17.246-21.1 17.251a1.977 1.977 0 0 1-2.4 0 1.208 1.208 0 0 1 0-1.961l22.3-18.227a1.977 1.977 0 0 1 2.4 0z" transform="translate(-1023.03 -249.031)"/></svg><svg width="18" height="18" viewBox="-2 -2 18 18" id="gray-cross" x="584" y="640" xmlns="http://www.w3.org/2000/svg"><defs><style>.ancls-1{fill:#999;fill-rule:evenodd}</style></defs><path id="anForma_1" data-name="Forma 1" class="ancls-1" d="M973.663 191l4.992-4.992a1.177 1.177 0 1 0-1.664-1.664L972 189.336l-4.992-4.992a1.177 1.177 0 1 0-1.664 1.664l4.992 4.992-4.992 4.991a1.177 1.177 0 0 0 1.664 1.664l4.992-4.992 4.991 4.992a1.177 1.177 0 0 0 1.664-1.664z" transform="translate(-965 -184)"/></svg><svg width="10" height="14" viewBox="-2 -2 10 14" id="icon-breadcrumb-arrow" x="651" y="640" xmlns="http://www.w3.org/2000/svg"><defs><style>.aocls-1{fill:#999;fill-rule:evenodd}</style></defs><path id="aoПрямоугольник_1_копия_copy" data-name="Прямоугольник 1 копия copy" class="aocls-1" d="M320.45 204.5l-4.95 4.95-.707-.708 4.242-4.242-4.242-4.243.707-.707 4.242 4.243z" transform="translate(-314.781 -199.563)"/></svg><svg width="34" height="34" viewBox="-2 -2 34 34" id="icon-form-success" x="40" y="709" xmlns="http://www.w3.org/2000/svg"><defs><style>.apcls-1{fill:#333;fill-rule:evenodd}</style></defs><path id="apForma_1" data-name="Forma 1" class="apcls-1" d="M713.8 314.118a1.06 1.06 0 1 0-1.5 1.5l4.887 4.881a1.036 1.036 0 0 0 .749.31h.052a1.181 1.181 0 0 0 .776-.388L731 305.777a1.064 1.064 0 0 0-1.629-1.369l-11.5 13.764zm14.116-11.827a15 15 0 1 0 4.758 4.751 1.051 1.051 0 0 0-1.784 1.111 12.781 12.781 0 0 1-1.81 15.959 12.881 12.881 0 1 1-2.275-20.04 1.05 1.05 0 1 0 1.115-1.781z" transform="translate(-705 -300)"/></svg><svg viewBox="-2 -2 69 69" fill-rule="evenodd" clip-rule="evenodd" stroke-linecap="round" stroke-linejoin="round" stroke-miterlimit="1.5" width="69" height="69" id="icon-play" y="640" xmlns="http://www.w3.org/2000/svg"><path d="M44.466 30.474a2.014 2.014 0 0 1 0 3.527l-17.799 9.788a2.012 2.012 0 0 1-2.982-1.763V22.45a2.013 2.013 0 0 1 2.982-1.764l17.799 9.788z" fill="#fff"/><circle cx="32.876" cy="32.238" r="30.047" fill="none" stroke="#fff" stroke-width="4"/></svg><svg preserveAspectRatio="xMidYMid" width="18" height="13" viewBox="-2 -2 18 13" id="icon-toggler" x="315" y="611" xmlns="http://www.w3.org/2000/svg"><defs><style>.arcls-2{fill:#f2264d}</style></defs><path d="M7.546.203l6.23 6.058a.73.73 0 0 1 0 1.053l-.459.447a.783.783 0 0 1-1.083 0L7.003 2.673 1.765 7.766a.771.771 0 0 1-.541.218.774.774 0 0 1-.542-.218L.224 7.32A.725.725 0 0 1 0 6.794c0-.2.079-.387.224-.527L6.459.203a.777.777 0 0 1 .543-.217c.207 0 .4.077.544.217z" id="arpath-1" class="arcls-2" fill-rule="evenodd"/></svg><svg width="55" height="57" viewBox="-2 -2 55 57" id="icon-zoom" x="69" y="640" xmlns="http://www.w3.org/2000/svg"><defs><style>.ascls-1{fill:#fff;fill-rule:evenodd}</style></defs><path id="asRounded_Rectangle_1_copy" data-name="Rounded Rectangle 1 copy" class="ascls-1" d="M1006.59 2008.72a.968.968 0 0 1-.69.28.986.986 0 0 1-.72-.31l-14.865-15.5a21.083 21.083 0 1 1 1.475-1.35l14.83 15.47a1 1 0 0 1-.03 1.41zm-10.67-31.71a18.963 18.963 0 1 0-18.963 19.02 19.009 19.009 0 0 0 18.963-19.02zM978 1979v11a1 1 0 0 1-2 0v-11h-11a1 1 0 0 1 0-2h11v-12a1 1 0 0 1 2 0v12h12a1 1 0 0 1 0 2h-12z" transform="translate(-956 -1956)"/></svg><svg width="223" height="37" viewBox="-2 -2 223 37" id="logo" y="603" xmlns="http://www.w3.org/2000/svg"><defs><style>.atcls-1,.atcls-2{fill:#a7a9ac;fill-rule:evenodd}.atcls-2{fill:#f2264d}</style></defs><path class="atcls-1" d="M95.582 5.8v.28h6.849a15.888 15.888 0 0 0-3.106-.282h-3.743zm8.952-5.015a17.215 17.215 0 0 1 5.553 1.981 12.576 12.576 0 0 1 4.8 4.92 17.488 17.488 0 0 1 1.946 8.81 17.73 17.73 0 0 1-1.844 8.618 12.441 12.441 0 0 1-4.617 4.937 17.09 17.09 0 0 1-5.6 2.094 32.091 32.091 0 0 1-5.54.5h27.553V6.08h9.336V.361H99.236a34.129 34.129 0 0 1 5.3.422m35.017 31.856h19.3v-5.72h-12.752v-8.253h11.591v-5.3h-11.591V6.08h12.753V.361h-19.3v32.277zm35.362-25.906a13.169 13.169 0 0 1 5.943-1.306 17.027 17.027 0 0 1 6.415 1.206l.282-5.539a23.575 23.575 0 0 0-7.159-1.1 22.8 22.8 0 0 0-7.487 1.159 15.777 15.777 0 0 0-5.7 3.361 14.578 14.578 0 0 0-3.591 5.3 18.342 18.342 0 0 0-1.241 6.878 17.84 17.84 0 0 0 1.3 7.009 14.22 14.22 0 0 0 3.63 5.157 15.55 15.55 0 0 0 5.4 3.12 20.052 20.052 0 0 0 6.485 1.04 26.37 26.37 0 0 0 8.365-1.384l-.418-5.494a16.055 16.055 0 0 1-6.741 1.43 13.435 13.435 0 0 1-5.345-1.076 9.184 9.184 0 0 1-4.126-3.541 11.388 11.388 0 0 1-1.612-6.349 11.671 11.671 0 0 1 1.488-6.035 9.7 9.7 0 0 1 4.114-3.828M212.006.369v13h-13.128v-13h-6.551v32.269h6.551V18.666h13.124v13.972h6.55V.361h-6.55z"/><path class="atcls-2" d="M16.335 15.492a54.176 54.176 0 0 0-5.248-2.5 11.948 11.948 0 0 1-3.1-1.806 3.46 3.46 0 0 1-1.195-2.8 3.325 3.325 0 0 1 1.043-2.342q1.043-1.08 3.805-1.08a18.662 18.662 0 0 1 7.07 1.577l.687-5.169a28.421 28.421 0 0 0-9.234-1.384 10.933 10.933 0 0 0-6.275 1.571A7.992 7.992 0 0 0 .804 5.195a10.782 10.782 0 0 0-.8 3.878 7.809 7.809 0 0 0 .9 3.874 8.343 8.343 0 0 0 2.492 2.741 31.645 31.645 0 0 0 4.082 2.383q1.4.652 2.66 1.249a14.545 14.545 0 0 1 2.075 1.16 4.417 4.417 0 0 1 1.3 1.374 3.789 3.789 0 0 1 .485 1.982 3.4 3.4 0 0 1-1.436 2.73 5.833 5.833 0 0 1-3.744 1.143 16.663 16.663 0 0 1-3.906-.553 23.427 23.427 0 0 1-4.076-1.384l-.7 5.617a24.349 24.349 0 0 0 8.41 1.622 17.565 17.565 0 0 0 5.587-.8 10.83 10.83 0 0 0 3.862-2.145 8.4 8.4 0 0 0 2.182-3.012 9.732 9.732 0 0 0-.643-8.533 9.561 9.561 0 0 0-3.2-3.029m20.419-8.76a13.158 13.158 0 0 1 5.942-1.306 17.02 17.02 0 0 1 6.415 1.206l.282-5.539a23.581 23.581 0 0 0-7.16-1.1 22.8 22.8 0 0 0-7.486 1.159 15.8 15.8 0 0 0-5.7 3.361 14.6 14.6 0 0 0-3.591 5.3 18.342 18.342 0 0 0-1.241 6.878 17.84 17.84 0 0 0 1.3 7.009 14.208 14.208 0 0 0 3.63 5.157 15.527 15.527 0 0 0 5.4 3.12 20.045 20.045 0 0 0 6.483 1.04 26.372 26.372 0 0 0 8.366-1.384l-.417-5.494a16.071 16.071 0 0 1-6.743 1.43 13.437 13.437 0 0 1-5.344-1.076 9.184 9.184 0 0 1-4.126-3.541 11.4 11.4 0 0 1-1.613-6.349 11.671 11.671 0 0 1 1.488-6.035 9.7 9.7 0 0 1 4.116-3.828m27.255 13.32l4.477-13.195h.1l4.746 13.195h-9.324zM65.069.368l-12.888 32.27h7.025l2.729-7.238h13.338l2.729 7.238h7.385L72.556.361h-7.487zm44.246 20.294a9.058 9.058 0 0 1-2.937 4.435q-2.35 2.112-7.053 2.112h-3.743V5.8h3.743a15.888 15.888 0 0 1 3.106.282 8.168 8.168 0 0 1 3.947 1.829 9.066 9.066 0 0 1 2.937 4.435 15.02 15.02 0 0 1 0 8.309m5.576-12.97a12.583 12.583 0 0 0-4.8-4.92 17.22 17.22 0 0 0-5.553-1.982 34.129 34.129 0 0 0-5.3-.422H89.031v32.277h10.205a32 32 0 0 0 5.54-.5 17.106 17.106 0 0 0 5.6-2.093 12.446 12.446 0 0 0 4.617-4.937 17.735 17.735 0 0 0 1.844-8.618 17.5 17.5 0 0 0-1.945-8.811"/></svg><svg width="30" height="31" viewBox="-2 -2 30 31" id="m-glass-black" x="359" y="640" xmlns="http://www.w3.org/2000/svg"><defs><style>.aucls-1{fill:#333;fill-rule:evenodd}</style></defs><path id="auForma_1_copy" data-name="Forma 1 copy" class="aucls-1" d="M912.594 2866.59l-6.407-6.68a10.861 10.861 0 1 0-8.32 3.89 10.742 10.742 0 0 0 6.227-1.97l6.457 6.73a1.41 1.41 0 0 0 1.021.44 1.393 1.393 0 0 0 .983-.4 1.426 1.426 0 0 0 .039-2.01zm-14.727-21.75a8.06 8.06 0 1 1-8.034 8.06 8.059 8.059 0 0 1 8.034-8.06z" transform="translate(-887 -2842)"/></svg><svg width="30" height="31" viewBox="-2 -2 30 31" id="m-glass-red" x="389" y="640" xmlns="http://www.w3.org/2000/svg"><defs><style>.avcls-1{fill:#f2264d;fill-rule:evenodd}</style></defs><path id="avForma_1" data-name="Forma 1" class="avcls-1" d="M912.594 2746.59l-6.407-6.68a10.861 10.861 0 1 0-8.32 3.89 10.742 10.742 0 0 0 6.227-1.97l6.457 6.73a1.41 1.41 0 0 0 1.021.44 1.393 1.393 0 0 0 .983-.4 1.426 1.426 0 0 0 .039-2.01zm-14.727-21.75a8.06 8.06 0 1 1-8.034 8.06 8.059 8.059 0 0 1 8.034-8.06z" transform="translate(-887 -2722)"/></svg><svg viewBox="-2 -2 30 30" fill-rule="evenodd" clip-rule="evenodd" stroke-linecap="round" stroke-linejoin="round" stroke-miterlimit="1.5" width="30" height="30" id="m-glass-white" x="419" y="640" xmlns="http://www.w3.org/2000/svg"><g fill="none" stroke="#fff" stroke-width="2"><path d="M17.137 17.392l7.439 7.439M17.137 4.148c3.655 3.654 3.655 9.589 0 13.244-3.655 3.655-9.589 3.655-13.244 0-3.655-3.655-3.655-9.59 0-13.244 3.655-3.655 9.589-3.655 13.244 0z"/></g></svg><svg viewBox="-2 -2 41 33" fill-rule="evenodd" clip-rule="evenodd" stroke-linejoin="round" stroke-miterlimit="1.414" width="41" height="33" id="mail" x="318" y="640" xmlns="http://www.w3.org/2000/svg"><g fill="#333" fill-rule="nonzero"><path d="M33.533 28.927H3.48c-1.658 0-3.006-1.569-3.006-3.5v-21c0-1.93 1.348-3.5 3.006-3.5h30.053c1.658 0 3.005 1.57 3.005 3.5v21c0 1.931-1.347 3.5-3.005 3.5zM3.48 2.677c-.829 0-1.503.785-1.503 1.75v21c0 .966.674 1.75 1.503 1.75h30.053c.829 0 1.503-.784 1.503-1.75v-21c0-.965-.674-1.75-1.503-1.75H3.48z"/><path d="M18.506 19.47L5.326 9.537c-.349-.263-.449-.804-.224-1.21.226-.406.691-.521 1.04-.26l12.364 9.318 12.365-9.318c.349-.261.814-.146 1.039.26.226.406.126.947-.223 1.21L18.506 19.47zM4.983 23.677a.726.726 0 0 1-.626-.389c-.231-.402-.137-.945.208-1.214l6.762-5.25c.346-.268.813-.16 1.042.243.231.402.138.945-.208 1.213l-6.762 5.25a.678.678 0 0 1-.416.147zM32.03 23.677a.682.682 0 0 1-.417-.147l-6.762-5.25c-.345-.268-.438-.811-.208-1.213.23-.403.696-.511 1.042-.243l6.762 5.25c.346.269.439.812.209 1.214-.145.253-.384.389-.626.389z"/></g></svg><svg viewBox="-2 -2 978 603" fill-rule="evenodd" clip-rule="evenodd" stroke-linejoin="round" stroke-miterlimit="1.414" width="978" height="603" id="main-page-map" xmlns="http://www.w3.org/2000/svg"><path d="M526.344 150.406l5.738 3.313-.338-3.508-10.059-3.455-.42-.14.005-.261-.024-4.465.001-.17.208-.1 7.292-3.546 1.094-.532.503 4.028 2.71.06-.316-1.685-.074-.391.673-.002 2.724-.007-.876-2.46-.058-.178.176-.128 3.43-2.48.112-.08.194-.032 6.011-.929 1.818-2.204-5.09-4.867-.072-.076-.03-.085-2.04-6.785-.021-.062.013-.06 1.778-7.163.036-.14.175-.078 5.553-2.545.18-.083.237.01 9.917.263 2.24-6.123-1.49-2.253-.044-.068-.042-.058-.225-.343-3.048-4.597-.056-.092.014-.093.842-6.769-10.037-5.795 1.22-.111 10.53-.971.902-2.656.025-.08.083-.062 3.585-2.678-4.4-3.033-7.287.889-1.965 2.383-.196.234-.482-.048-8.775-.904-.666-.07-.015-.383-.216-6.011-.002-.095.069-.08 2.181-2.435-2.954-1.221-.229-.099-.088-.153-4.706-8.892-.057-.11.041-.103 7.397-18.683 3.108-13.563.043-.18.264-.077 14.832-4.476 1.298-2.385-8.92 1.875-.83.175-.189-.534-1.405-4.03-5.14-3.665-.233-.168.063-.193 3.388-10.25.115-.343.622.07L556 1.159l.737.085-.07.41-.45 2.586 5.013-.249.71-.031.135.426.894 2.835 6.864-2.502.282-.1.354.085 4.282 1.071L578.2 2.71l.417-.37.638.35 5.008 2.748.648.357-.634.263-3.658 1.515 3.122.273.747.067-.048.422-1.098 9.424-.022.157-.197.09-5.585 2.586-.103 3.007 5.25 2.623.143.066.073.102 2.693 3.423.476.598-1.093-.07-5.522-.368-.119 1.698-.02.336-.592-.002-5.325-.033 3.65 3.017 5.219.413 1.965-2.968.333-.505.77.42 2.908 1.568.368-1.308.051-.191.31-.067 2.336-.52.391-.09.35.177 11.074 5.383.156.082.077.112 2.268 3.17.121.163-.12.152-2.332 3.028 4.721 2.726 2.97-1.462-3.097-2.29-.37-.273.331-.234 3.864-2.704-.958-2.71-.08-.225.275-.13 18-8.569.34-.16.444.146 5.984 2.019.469.16-.052.285-1.677 8.537 5.12-.62.342-.04.3.147 16.775 8.275.08.038.507.25 23.608 11.65 13.707 3.777.968.27-.652.397-6.012 3.63.746 5.018 13.45 7.91 1.08.632-1.41.036-8.2.218L707 85.22l.642.243-.344.337-2.254 2.198 5.183 3.52 27.425 6.26 2.14-.99-2.389-1.872-.379-.295 4.804-2.774.448.122 6.901 1.878.166.045.137-.014 6.541-.539.825-2.123.1-.274.519.01 9.632.244.91.024-.143.504-.83 2.97-.105.364-.666-.088-4.197-.57-.171.775 17.667 3.515 7.737-2.218.346-.098.371.138 4.478 1.728.334.124.039.218.718 3.728 6.08 3.646 16.301 1.358.73.056-.02.413-.095 2.205 6.213 3.996 8.53.353.198.005.18.07 7.977 3.025.057.025.04.015 15.358 7.72 1.173.592-1.408.104-60.91 4.479-.09.008-.087-.009-13.758-1.045-.036-.004-.665-.052-12.197-.926-.238-.018-.187-.091-8.622-4.282-8.796-.737-.569-.048-.123-.327-.729-1.983-3.847-1.295-.372-.121-.04-.236-.667-3.333-10.607-3.49-.054-.014-10.355-3.975-.047-.018-.056-.024-13.966-7.214-6.382-1.161-.274-.048-.165-.138-9.078-7.441-2.133.705-.477.158-.424-.262-3.388-2.083-1.902.966-.134.067-.196.014-8.728.56-.286.021-.247-.1-5.053-2.06-.253-.103-.08-.166-1.81-3.899-2.738 3.695 1.757 1.728 13.66 3.13 3.168.29.668.063.023.388.176 2.777.067.022 5.502 2.08.049.02 7.333 3.232.07.032.066.038 2.91 1.97.374.257-.284.244-3.011 2.568-.226.193-.438-.058-12.456-1.627 2.362 2.476.246.261-.298.193-2.253 1.452 2.884 6.754 5.496 4.005 10.991 3.644.077.028.069.04 15.32 7.995 4.712.13-.987-3.22-.121-.393.67-.03 5.573-.23.692-.026.146.407 1.448 4.14.04.117-.068.105-1.88 2.78 6.917 5.098.138.105.026.125 1.192 5.284.09.4-.688.002-5.467.004h-.633l-.15-.367-1.536-3.58-2.663 1.657.077 4.784v.085l-.06.076-3.225 4.025 7.808 3.429.552.242-.297.305-2.177 2.217-.079 2.444.003.018-.013.027-.788 3.384-.066.277-.03.119-.33 1.397 2.442.399.305.05.173.158 1.347 1.211.386.342-.52.193-4.554 1.694 1.615 15.042 7.17 3.18.148.069.097.098 4.074 4.595 8.196 3.05.153.054.102.093 6.564 5.786 15.71 10.795.071.05.045.05 11.212 13.338 4.24 2.702 4.779-1.887 1.55-5.256.143-.486.814.258 10.172 3.17-1.239-3.696-.17-.522.897.1 5.283.58-8.232-7.09-.2-.166.076-.177 2.592-5.97.055-.13.187-.071 10.06-3.817.067-.028.057-.01 5.85-1.219.678-.143.295.425 1.94 2.836 3.812.358 6.733-1.38-12.617-3.274-7.248.3-.442.017-.275-.228-2.679-2.268-.434-.37.596-.19 2.183-.694-.425-1.24-5.485-.847-7.277.454-.462.03-.276-.235-2.23-1.865-.224-.181.11-.191 1.086-1.956.165-.287.545.06 7.868.856 12.466-.78.16-.01.168.039 16.046 3.41 22.387.244 27.845-2.001 2.034-.142-1.292.842-6.438 4.208-1.142 3.155 7.078 2.218 12.096 3.45 8.588-.461 6.184-1.162 4.172-2.408.437.1 9.346 2.235 2.036.488-1.964.285-5.048.73-.559 1.028-.032.066-.075.05-2.857 1.935 4.42 1.924.072.033.048.036 5.524 3.614 1.287.845-1.825-.196-11.351-1.244-.192-.017-.16-.076-5.473-2.48-6.573 1.115-.273.046-.268-.086-4.305-1.33-.003-.002-4.656-1.448-6.554.251-.139.005-.12-.027-8.998-1.602-12.374-2.124-8.867-.982-.113-.014-.103-.026-9.297-2.709-9.801 1.299 4.153 1.123.055.015.073.025 13.88 5.602 5.49.528.081.004.087.024 24.167 5.62.045.009.035.012 6.932 2.133.138.045.1.067 15.819 10.433.2.14.258.116 16.696 7.634.117.05.067.065 10.142 8.862 22.523 15.153.091.061.051.08 5.051 7.368.06.086-.007.089-.432 7.218-.008.14-.17.097-8.911 4.98.507 6.172.071.865-1.202-.618-4.205-2.156-20.4-.998-.481-.023-.202-.269-5.121-6.83-.168-.233.24-.168 8.541-6.01-6.694-1.265-.19-.042-.151-.087-16.293-9.959-.176-.102-.206-.067-8.72-2.69-.212-.072-.123-.122-3.183-3.205-9.126-1.616-1.54 2.89 1.811 8.216 2.825 2.888.154.165-.078.16-3.719 7.621-.118.246-.461-.002-8.01-.02-.105-.002-.1-.015-10.443-1.765-.004.006-2.178 1.699-.096.072-.121.032-6.215 1.67-.978 2.111-.09.186-.306.053-5.074.884-2.906 4.566-.161.247-.474-.027-31.117-1.596-24.16-.927-6.212 5.198-.09.075-.153.04-8.795 2.176-3.376 7.641-.076.169-.032.169-1.158 6.067 3.388 5.396 4.531-2.047.32-.147.416.121 9.132 2.69.424.127.034.257.5 4.052 12.1 9.228 6.997 1.942.535.147-.058.315-.866 4.538 3.917 4.35.277.322-.445.176-15.363 6.098.187 3.506.013.381-.651-.019-4.384-.11-6.689 4.336.382 6.15 2.947 2.95.262.27-.313.193-3.223 2.022-3.298 10.617-.043.127-.174.079-18.016 8.414-.279.128-.37-.078-6.322-1.348-1.898.994-.117.06-.385.202-3.45 1.806-.269.142-.383-.077-4.08-.792-5.02 3.37-.082.055-.113.028-7.212 1.927-2.152 6.743-.032.1-.122.074-4.831 2.953-.119.076-.169.022-11.404 1.605-.29.044-.277-.109-10.509-3.85-11.944 3.995-.046.015-.045.008-15.228 3.212 2.64 2.416-.317.207-2.073 1.335 2.428 1.52.36.225-.198.243-1.077 1.324 5.693 3.677 7.13.668.425.042.193.23 3.446 4.147.084.09-.002.102-.027 3-.003.074-.046.067-1.712 2.316-.16.214-.426-.008-3.653-.08-4 1.675-10.228 4.578-.09.042-.124.021-5.1.785-.333.054-.308-.135-4.664-2.03-10.357 3.577-.227.08-.286-.045-2.31-.357-4.98 3.343-9.02 13.201-.097.139-.018.168-.566 4.252-.011.12-.142.089-5.413 3.44 1.905 2.537.205.288-.364.163-5.054 2.256-.242.106-.331-.046-7.746-1.168-.105-.018-.108-.037-3.67-1.295-1.549 3.693-.133.314-.576-.06-3.67-.37-4.79 1.652-.443.152-.428-.239-4.695-2.574-6.19.758-.35.045-.3-.148-4.338-2.097-12.152-1.197-2.748 3.969-.105.16-.308.043-11.15 1.463-.315.039-.296-.12-4.165-1.742-2.266.467 1.358 3.12.071.177-.161.136-2.666 2.199-.349.291-.594-.232-39.309-15.763-.222-.087-.233-.04-15.674-2.831-.533-.096-.05-.31-.398-2.412-5.525 3.028-.21.117-.182.158-4.133 3.653v2.048l-.001.101-.087.086-1.664 1.621-.124.125-.25.033-3.792.487-1.73 2.085-.394.469-3.27-1.888.01-.19.116-2.812-3.629-.269-2.33.744-2.703 1.396-.427.22-.504-.248-3.138-1.557-6.365 2.119-.354.118-.39-.149-2.942-1.12-.318-.125-.05-.207-.76-3.114-2.966-.94-.375-.123-.055-.236-.284-1.31-3.233-1.748-1.977.566-.255.074-.287.115-2.73 1.09-.253.1-.327-.06-.413-.078-10.2.108-.606.365-.132.076-.066.132-2.012 3.748-.069.122-.17.063-14.285 5.26-.08.03-.101.01-5.212.71-.188 2.347-.023.284-.47.043-6.742.627-8.784 2.93-.25.085-.215.106-7.188 3.589-.203.103-.282-.018-6.819-.429-1.137 1.331.45 2.682 4.578 1.59 6.03 1.085.572.101.022.327.124 2.085.026.346-.598.02-5.225.152-2.216 1.133-.686 1.812 3.257 2.28.399.282-.341.236-4.115 2.849.671 1.882.009.022.052-.004.188.05 12.419 3.1.382.102.102.229 1.318 3.054.022.064-.004.066-.27 2.146-.026.206-.313.083-6.322 1.659-.258.071-.283-.07-3.426-.78-1.538.395-.516 1.648-.053.173-.283.074-2.579.66-.171.046-.182-.012-5.112-.369-.172-.014-.157-.057-2.8-1.038-.122-.046-.088-.068-3.22-2.385-3.375.336-.09.008-.077-.002-3.022-.122.315 1.668.04.227-.305.113-2.417.898-.26.097-.313-.063-2.593-.494-.212-.037-.156-.1-1.678-1.087-5.428 1.028-2.003 1.01-.485 2.158-.065.277-.481.02-3.448.167-.27.014-.245-.1-4.285-1.768-2.627-.642-1.143.317-.797 2.64-.126.42-.748-.168-4.015-.916-.141-.175-1.937-2.35-5.805-2.239-4.678-1.63-3.174.775-.164.04-.187-.013-2.016-.162-.462-.037-.187-.253-1.074-1.435-1.447-.954-3.179.534.038 1.194.007.106-.094.09-1.306 1.251-.282.27-.566-.148-5.652-1.547-.156-.04-.11-.071-2.262-1.417-2.007.914-1.885 2.03-.032.032-.041.027-3.569 2.391-.164.11-.263.01-1.853.059-1.058.74-.098 2.254-.008.19-.256.09-4.415 1.623.342 1.811 1.75 2.556.102.136-.077.134-1.3 2.41-.185.343-.638-.13-4.243-.87-.293-.06-.16-.16-1.64-1.652-2.332-1.6-4.645-.126-.082-.005-.883 1.062-.015.017-2.659 2.84-1.228 3.19 2.905 2.348.258.208-.159.206-2.594 3.353-.128.164-.095.166-.888 1.577-.359.838 6.689.896.627.082.017.358.207 3.722 1.495 1.177 2.785-.915.216-.07.257.037 4.472.569.3.037.197.148 10.934 8.615.313.24-.248.222-1.675 1.513 4.98 1.984.736.297-.535.329-10.166 6.201-.085.053-.116.027-5.538 1.305-.197.047-.08-.012-.037.072-1.733 3.28-.046.085-.106.057-3.978 2.19-.09.049-.008.072-.342 2.86 3.227 1.227.1.04.076.052 6.401 4.266.187.124.01.159.63 7.125 8.96 7.009 7.867 4.541-.056.214-.636 2.36-.051.183-.28.076-2.707.73-.048.016-.07.01-2.38.325.632 1.112.078.139-.08.124-.77 1.27-.169.278-.532-.053-7.56-.78-.352-.033-.206-.179-2.207-1.988-5.56-3.481-8.989-1.274-.196-.028-.154-.08-4.562-2.346-.256-.13-.022-.183-.21-1.65-.002-.053-2.415-.978-3.598-1.066-.14-.038-.177.008-2.443.11-.32.01-.266-.136-1.098-.575-.365-.193-.211-.114-.16-.075-.545-.29-7.313 1.232-.397.069-.336-.178-5.113-2.74-.185-.097-.161-.026-2.215-.361-.19-.033-.157-.083-4.517-2.471-5.695-.4-.767-.052-6.866-.481-.268-.019-3.648-2.106-8.77-1.614-.147-.026-.56-.103-3.23-.59-.796 1.4-.173.3-.563-.079-2.58-.334-.27-.037-.192-.128-7.872-5.556-4.867-3.234-6.77-2.634-.08-.03-.07-.04-3.197-1.982-3.349.14-.216.01-2.984-.95-.366-.117-.06-.23-.455-1.707-5.058-2.64-.268-.138v-.195l-.136-3.239-.022-.497.85.16 9.213 1.7-.644-1.9-.06-.189.202-.13 4.435-2.892.116-.078.174-.027 2.983-.46-5.578-3.858-.956-.663 1.39.021 9.333.13.125.005.134.027.126.03.173-2.118.028-.28.468-.045 5.493-.558.234-1.19-10.267 1.115-.846.089-.082-.514-.625-3.955-.029-.203.261-.113 7.722-3.298.248-.103.308.05 7.19 1.086 1.98-2.884-2.432-4.037-.127-.201.201-.156 1.525-1.175-1.015-2.167-.098-.226.268-.143 3.335-1.787-.613-.226-1.228-1.134-4.395-2.716-3.138-.673-.5-.11-.225-.045-11.85-2.56-.162-.034-.127-.073-6.151-3.416-7.811.706-.418.039-.3-.199-2.713-1.821-2.415.415-.327.058-.308-.127-2.528-1.027-.248-.1-.08-.165-.71-1.413-.02-.028v-.017l-.782-2.524-.027-.084-.146-.11-4.547-3.177-3.115.343-.407.045-.308-.195-2.746-1.73-.383-.238.235-.246.916-.958-1.172-1.722-.104-.145.078-.133 1.037-1.78.049-.082.107-.057.085-.045-.1-.287-1.64-4.582-1.393-.805-2.639.974-1.892 1.414-.366.273-.562-.223-4.545-1.809-3.348.064-2.301 1.483-.404.26-.536-.25-3.537-1.609-.325-.145v-.22l.097-5.594-2.434-2.935-.268-.324.468-.163 2.943-1.037.512-.18.43.308 2.103 1.469 4.614.124 3.538-1.686-1.46-.945-.153-.106-.038-.132-.62-2.049-2.88-1.017-.112-.039-.081-.055-4.06-2.632-.096-.065-.057-.075-3.079-4.36-.017-.019-.005-.028-1.768-3.458-.051-.098.036-.098 1.34-3.84-.438-.728-.103-.161-.153-.267-.094-.148-.908-1.517-3.595-1.465-3.486 1.114-.353.11-.377-.15-2.942-1.12-.304-.116-.066-.2-.802-2.637-4.027-.44-.229-.021-.175-.093-5.278-2.758-.323-.17.06-.229 1.102-4.443-3.483-2.147-.443-.273.337-.256 2.483-1.896-2.301-4.217-.14-.241.3-.15 4.375-2.215-1.263-3.142-.027-.058.005-.056.414-4.22.013-.112.107-.083 2.096-1.576.422-.317 2.148-1.614.953-3.79.082-.31.557.016 6.299.187 1.954-.978.317-.157.42.124 3.504.995.03-.875-2.254-.808-.096-.039-.087-.05-4.49-2.88-.328-.216.16-.23 2.95-4.193.039-.054.07-.044 3.937-2.476.218-.137.224-.143 5.268-3.312.034-.023.043-.018 13.923-5.901 1.253-2.02-6.473-4.698-.043-.033-.02-.02-3.785-3.62-.338-.332.48-.19 5.179-2.048-.145-1.196-3.05-.656-.585-.126.297-2.394-1.253-1.946-1.862-2.214-.227-.276.342-.176 2.473-1.273.728-3.454.025-.13.163-.084 2.632-1.369-2.341-7.298-.03-.11-.063-.207-.072-.211-.924-2.886-.056-.194.21-.125 5.952-3.598-2.618-5.01-4.601-2.504.083-.233 1.562-4.535.284-1.968.02-.15.196-.09 10.458-4.878.132-.06.173-.01 11.761-.821.18-.015.173.04 5.621 1.232.617.135-.08.353-.432 1.908-.082.378-.687-.09-4.216-.575-.2.752 4.449 2.05 8.702 1.499.093.01.086.033 5.991 2.015.098.04.082.047 12.607 7.568 10.815 3.959.14.055.1.075 6.227 5.03.094.08.04.09 2.56 6.652.058.162-.138.124-4.68 4.195-.132.12-.26.028-16.453 1.705-.321.036-.28-.128-5.226-2.32-7.06-1.12-.182-.029-.146-.076-8.012-4.057-6.328-1.546-.21-.045-.135-.103-4.364-3.208-1.939-.27 5.22 4 .548.418.004.002.162.12 5.619 4.211.084.066.046.078 2.217 3.862.088.153-.113.138-2.334 2.95 1.953 6.319 1.49 2.397 3.762.5.31.042.193.154 1.557 1.315 2.558 1.137.217.1.4.18 5.174 2.308 5.007-.643-.958-2.61-5.114-.488-.371-.036-.205-.195-4.54-4.345-.263-.246.268-.201 4.755-3.575.487-.365.602.399 6.425 4.27 12.014 3.181 2.948-.337-5.726-6.814-.19-.22.219-.18 4.844-3.956.092-.074.144-.036 6.447-1.612 3.777-3.155.265-.22.489.104 9.858 2.106.93.197-.471.434-1.443 1.333 3.668.767-.145-3.898-.005-.25-.007-.199-.002-.026-.008-.251-.142-3.812-3.533-2.727-.195-.155.042-.172 1.827-7.397-4.99-4.69-.707-.663 1.277.082 12.368.821.267.018.207.112 6.878 3.826.16.092.057.118 1.749 3.304.226.427-.729.047-7.065.44-2.35 3.052 4.196 1.301.225.07.122.13 2.39 2.562 1.727.053 5.746-1.507 1.679-5.02.092-.286.53.009 3.463.079-.255-2 .33-.106 17.562-5.66.254-.083.3.063 2.824.568-.795-2.83-.07-.252.345-.115 6.785-2.258.745-.25.331.514 2.628 3.955.142.218-.222.16-2.828 2.03 4.46.578 5.77-4.128.15-.108.267-.015 7.864-.345 8.822-4.93.47-.264 3.923 2.265.006.182.118 2.76 2.941-.077-.704-1.527-.128-.27.371-.134 2.091-.755.943-2.905-4.334-2.629-.055-.032-.033-.036-2.536-2.186-.336-.288 5.29-3.054.321.017 13.973.889.094.003.078.02 7.408 1.541.321.067.341.06 13.864 2.39.112.022.112.039 7.316 2.805 3.265.552-.24-4.64-3.054-.448-.126-.013-.102-.041-3.21-1.131-.203-.076-.112-.115-2.562-2.805-7.477-.384-.31-.017-.229-.14-2.023-1.321-.353-.222.203-.239 2.554-3.061-2.942-4.868-6.44-.77-.63-.075-.027-.364-.28-3.322-.013-.109.086-.086 3.701-3.759-.384-4.112-2.116-6.37-.02-.054.013-.052.426-4.06.02-.226.357-.075 2.182-.465-1.734-.491-.16-.041-.117-.077-3.736-2.497-.492-.326.494-.241 4.264-2.075.415-.202.484.228 6.13 2.86.574.272-.386.304-2.692 2.107 8.533 1.027.299.037.191.144 6.62 4.97.152.121.016.136.465 5.799 5.265 2.097.15.061.098.09 2.715 2.579.023.013.026.032 13.146 16.297 6.185 2.73.186.082.09.128 5.861 8.558.075.11-.027.104-1.705 6.627-.016.042-.017.032-2.246 3.453-.095.149-.278.051-10.997 1.942 2.891 1.67 19.099-1.852-.77-4.165-.011-.1.058-.086 2.89-4.108-.977-6.799-7.906-4.989-.204-.126-.013-.16-.381-4.094-.019-.198.264-.11 7.097-2.937.335-.138.402.13 7.778 2.477.294.093.101.178 3.971 6.778 7.074 2.555 2.751-2.752-3.024.369-.208.024-.201-.048-3.293-.754-.445-.104-.083-.261-1.377-4.838-6.366-3.676-11.546-1.068-6.437 3.717-.53-.272-7.127-3.682-.178-.094-.069-.133-4.908-9.783-11.307-6.392-.177-.094-.052-.123-1.824-3.925-.069-.15.107-.125 1.69-1.93-.098-2.731-3.46-3.825-.147-.161.083-.156.648-1.206.341-.627.842.554 7.114 4.685.16.101.034.13 1.338 4.519 4.969 2.605 14.16.113-3.433-1.777-9.556-.625-.4-.026-.213-.209-3.337-3.217-.616-.594 1.128.014 7.27.104-3.289-3.106-.28-.264.309-.203 2.323-1.539.22-.145.205-.136.014-.01 3.147-2.081.275-.181.441.093 14.1 2.976 4.37-2.523-5.733-1.518-8.025-.258-.31-.01-.227-.139-9.805-5.95-.134-.077-.053-.098-2.016-3.314-.143-.243.28-.154 6.24-3.438.04-.02.035-.014 12.47-4.897 2.355-2.463-7.175-1.458-.27-.054-.158-.142-5.097-4.523-.128-.116v-.128l-.057-3.617.001-.144.162-.102 3.938-2.432.438-5.932.004-.108.105-.084 6.453-5.143-4.083-2.23-.562-.299.468-.281 6.566-3.957.345-.208.494.166 2.664.918 5.12-1.92-.171-2.342-.015-.212.292-.104 3.71-1.298-3.958-.594-.191-.026-.145-.075-1.85-.924-.578-.29.436-.293 4.768-3.202-5.926-2.156-.292-.1-.083-.184-3.845-8.396-.057-.134.08-.115 1.925-2.771.136-.202.414-.008 7.32-.08.637-.006.159.372 1.021 2.382 6.09-2.643.653-.286.438.474 4.492 4.879 1.635-1.392-1.624-3.826-.096-.217.259-.14 7.755-4.144.205-.111.307.024 18.446 1.459.389.029.203.202 8.017 7.644.053.04.027.049 6.2 10.188.031.053.006.054 2.008 12.933 3.347 2.017-1.11-1.88-.09-.163.117-.136 3.32-3.877.419-3.989.01-.036.02-.04 1.385-2.989.106-.228.1-.214.087-.187.011-.036 1.323-2.847-.515-3.109-.064-.393.672.005 4.274.021.238.002.208.086 2.638 1.081-.65-.622-.071-.066-.031-.077-1.609-4.378-.077-.206.23-.13 11.466-6.454.612-.343.505.478 1.686 1.585 6.67-.473 5.367-9.125-9.753-6.608-.645-.44.822-.18 8.594-1.893 3.228-4.279.106-.142.271-.047 5.615-.921.174-.027.195.028 15.223 2.324.685.107-.069.385-.537 3.02 17.742.228 6.317-2.47-14.371-8.297.655-.25 9.678-3.697-4.604-4.255-.409-.38.613-.174 6.558-1.837 2.468-2.1-3.841-1.046-.38-.1-.09-.23-.787-2.035-.06-.146.122-.124 2.783-2.862-5.855-.5-.237-.018-.186-.099-3.571-1.824-.793 1.7-.166.363-.662-.136-4.24-.868-.529-.11-.028-.313-.363-3.871-5.01-.48-.883-.085.21-.474 5.01-11.183.038-.08.088-.06 3.818-2.535 1.225-.813.042 1.154.158 4.313 2.498.983-.092-2.381-.01-.158 3.26-1.881zm192.764 235.638l.02-.047 3.167-5.639-.589-2.591-3.957-3.109-.404-.326.463-.217 2.841-1.342-1.334-3.412-.054-.133.102-.12 2.26-2.764-2.072-3.889-2.258-1.44-.373-.24.235-.247 1.244-1.303-1.298-1.54-2.73-.905-.275-.09-.106-.172-.607-1.013-.04-.066-.004-.062-.125-2.051-2.137-2.5-4.26-1.466-.078-.027-.053-.03-6.776-3.471-.068-.04-.052-.038-5.53-4.348-2.887-1.268-2.079.916 1.624 2.73 6.254 4.774.042.033.03.025.632.671.936.99 3.408 3.608.015-.009.48.533-.002.007.01.006 5.188 5.773.045.043.023.047 2.178 4.46 2.243 3.929 2.123 2.219.096.098.008.107.164 4.562 1.432 2.985.038.081-.015.077-1.065 5.45-.014.094-.092.074-2.144 1.727-.516 1.647 2.573.628 4.12-2.379zm240.053-192.76l-.371.031-.112.208-.83 1.627-.015.042-.01.046-.089 1.104-.029.28.456.144 4.028 1.332 3.811 2.557.105.07.139.046 3.677 1.128.707.222.23-.402.436-.776.125-.226-.305-.201-6.926-4.399-.347-1.364-.032-.12-.14-.106-1.73-1.245-.3-.216-.43.041-2.048.176zM970.51 191l-.144-.049-.14-.022-2.618-.355-.817-.106.047.468.115 1.222.015.17.215.132 1.834 1.093.107.07.153.038 2.216.583.634.162.241-.328 1.076-1.485.229-.31-.535-.215L970.51 191zm-20.9-10.571l-.012-.016-1.058-2.14-.081-.174-.272-.097-3.34-1.266-.47-.178-.37.194-1.914.994-.55.285.652.326 2.07 1.025.001 1.224-.006.021.003.02.438 2.826.03.17.232.126 6.558 3.59.042.025.023.013 5.812 2.591.308.136.34-.05 1.3-.201.917-.142-.66-.483-2.621-1.887-3.41-2.546-.046-.027-2.833-1.823-1.084-2.536zm-4.415-7.646l-2.59 1.495-.53-.28-2.083-1.11-.016-.01-4.467-2.485-4.285-2.371-.23-.133-.02-.174-.267-2.158-.072-.509.885.154 4.257.733.17.03.136.07 5.197 2.619.112.056.071.084 3.474 3.721.258.268zm-23.632-18.341l-.338-.102-.306.087-2.646.757-.363.105.045.246.325 1.904.043.254.408.125 4.777 1.425.604.178.28-.305 2.423-2.61.34-.365-.72-.22-4.872-1.48zm-11.257-3.034l.222.316 1.28 1.792.158.21.368.068 2.904.53.566.106.206-.29.834-1.14.161-.221-.29-.21-2.723-1.955-.427-.306-.518.177-2.292.774-.45.149zm-8.814-5.947l-.35-.074-.271.115-1.348.556-.369.152.184.284 1.197 1.839.155.242.425.058 3.968.575.823.118-.04-.473-.186-2.206-.024-.31-.528-.11-3.636-.766zm-24.635-8.684l-.85.155.615.457 2.142 1.585.134.103.201.048 3.415.85.678.17.198-.37 1.258-2.34.104-.177-.197-.173-1.24-1.141-.342-.308-.547.1-5.57 1.04zm-4.147-3.44l-.398-.195-6.984-3.548-.222-.11-.277-.008-3.38-.066h-.178l-.136.04-2.318.692-.708.211.6.397 6.15 4.112.188.126.275.03 5.59.646.568.064.156-.3.934-1.831.14-.26zM144.07 549.684l-15.343-1.825-8.201-8.88-6.062.085-.427 2.353-16.002 1.09 1.24 2.39 8.504 4.528.78 4.34 7.422 3.122 5.57-3.674 15.62 1.662 8.006-.874-.093-.35-1.014-3.967zm710.123-419.236l-.107.405-.518 2.071-.063.27.425.168 1.977.794.257.105.289-.028 3.266-.272.83-.073-.4-.469-1.75-2.056-.156-.191-.351-.058-2.985-.535-.714-.131zm2.638-4.11l-.636-.002.019.368.063 1.013.011.126.135.112 1.305 1.101.36.31.532-.117 2.969-.665.424-.095-.059-.28-.31-1.436-.085-.414-.711-.004-4.017-.017zm-78.7-54.552l-.344-.07-.266.117-4.619 2.023-.093.04-.052.054-2.777 2.763-.473.474 1.007.157 4.02.648.308.05.245-.096 6.523-2.605.174-.07.059-.127.88-2.057.174-.4-.724-.139-4.042-.762zm2.002-6.999l-2.093.695-.171.053-.075.11-2.28 3.381-.375.557 1.092.045 4.17.173.644.023.015-.365.199-4.243.035-.812-1.16.383zm-62.89 21.09l-.085.036-2.176.867-.453.18.306.321 3.58 3.74.205.22.406.032 12.671.944 1.64.123-1.14-.77-9.51-6.381-.349-.236-.456.085-4.567.83-.072.009zM352.974 294.5l-.184.48-.936 2.424-.042.112.079.122.85 1.306.292.45.706-.162 2.94-.673.17-.038.1-.086 1.665-1.477.402-.354-.704-.245-4.528-1.578-.81-.28zm-72.37 35.078l-.313.33-2.48 2.594-.21.218.294.23 3.28 2.565.164.128.26.048 6.376 1.167.447.08.26-.19 2.422-1.787.356-.262-.45-.276-4.219-2.606-.082-.048-.09-.035-5.388-1.93-.627-.226zm76.44-40.756l-.354.051-2.367.34-.59.085.17.361 1.22 2.633.134.29.502.06 5.305.616.552.065.165-.288.738-1.28.158-.275-.429-.205-4.902-2.304-.303-.149zM149.652 414.5l1.522.08 3.415-1.774-.165-1.922v-.025l-.205-.195-3.123-2.958-.09-.086-.026-.092-1.12-4.927v-.035l-.252-2.6-2.811-2.141-2.66-.55-3.485 1.147 1.217 6.445 1.704 2.556 4.696 2.363.12.06.074.085 1.02 1.117.219.245.149.018-.007.14.264.297-.282-.036-.13 1.897-.01.146-.167.091-.014.009.147.645zm298.238-184.754l-.322.17-2.088 1.098-.268.142.106.231.866 1.791.037.064.061.061.967.881.199.183.354.034 2.251.247.63.066.099-.342.931-3.149.101-.324-.552-.157-2.928-.867-.444-.129zm-112.479 63.892l-.18.227-.895 1.115-.27.336.624.216 2.589.9.427.153.348-.155 1.958-.874.441-.196-.336-.313-1.012-.958-.215-.2-.388-.03-2.636-.187-.455-.034zm29.18-19.544l-1.264-.093.684.667 1.485 1.452.262.261.488-.024 1.778-.086.802-.038-.299-.462-.767-1.182-.181-.274-.49-.037-2.498-.184zM118.966 416.457l.367.06 4.075.61 3.697-2.232-1.116-1.273-.09-.111.01-.113.208-2.08-2.571-1.918-3.64-1.923-.219-.118-.044-.16-.452-1.757-2.91-1.765-3.823-.526-4.385 1.827-2.267 2.089-.051.047 4.617 2.461.216.117.048.155 2.47 8.63 2.013.202 3.847-2.222zM360.378 274.21l-.344.107-1.925.597-.45.139.187.312 1.037 1.711.196.309.55.011 3.58.071.682.012-.232-1.825-.024-.235-.36-.131-2.523-.939-.374-.139zm82.244-50.614l.254.308 2.12 2.506.235.29.52-.015 5.498-.138.775-.02-.224-.452-1.09-2.142-.031-.069-.062-.053-1.543-1.4-.296-.264-.494.046-2.75.256-.152.014-.1.043-2.237.918-.423.172zm-190.238 58.991l.995-4.157.057-.213.343-.066 4.707-.9 1.097-3.003.097-.267.48-.003 7.255-.05 9.05-4.307-1.107-1.488-.134-.188.15-.16 3.578-3.812.196-.21.452.04 5.2.488.32.031.205.153 3.784 2.856.227.173-.073.188-1.9 4.78-.04.096-.109.066-20.525 12.427.881 3.55.066.242-.341.117-3.894 1.346.074 1.682.01.328-.548.032-3.395.198 1.867 1.443.111.081.033.104.705 1.92.183.487-.847-.056-2.544-.16 1.24 1.004.506.42-.73.165-2.499.57 1.693 1.105.511.33-.507.242-1.672.81 1.744 1.822-.26.19-2.57 1.872-.144.103-.231.02-3.649.322 2.705.866.33.105.088.204 1.112 2.655.054.133-.092.117-2.616 3.4.858 4.496 3.86 3.197 11.576 8.026.694.485-.94.145-2.67.413-3.217 1.099-.427.144-.425-.211-2.03-1.037-2.223.96-.302.13-.378-.098-7.245-1.83-.468-.117-.034-.284-.389-3.078-4.549-2.482-5.682-.231-.307-.016-.23-.141-3.546-2.217-.245-.15.025-.19.388-3.131.022-.209.324-.084 3.364-.861 1.534-3.515-2.42-1.55-.496-.32.48-.25 2.794-1.445-2.724-2.159-.55-.436.782-.16 5.827-1.19-.188-2.478-3.992-.164-.103-.374-.559-2.004-.086-.305.475-.091 3.267-.62 3.906-4.787-1.768-1.31-.373-.283.351-.23 2.128-1.396-4.407-3.794-.785-.673 1.326.077 4.52.265.055-1.6.006-.149 3.517-2.03zm-19.005 66.364l.337.041.234-.128 5.194-2.82.357-.193-.278-.288-1.593-1.582-.078-.079-.116-.059-3.57-1.695-.187-.092-.233-.015-6.033-.39-.463-.03-.172.232-2.285 3.106-.136.185.202.193 2.879 2.75.195.18.352.042 5.394.642zm127.759-78.295l1.563.979.287.183.388-.031 1.705-.128.749-.052-.285-.445-.678-1.062-.237-.358-.621.049-2.582.208-1.187.096.898.561zm.564-1.628l.19.059.206-.009 2.053-.071.729-.03-.187-.422-.674-1.579-.171-.396-.675.035-3.079.151-.494.02-.049.287-.157.946-.048.303.5.152 1.856.554zm-22.267 7.115l.26.21 1.223 1.004.201.158.32.04 2.726.309.826.094-.085-.474-.254-1.48-.04-.227-.353-.127-2.738-.987-.653-.24-.303.36-.953 1.148-.177.212zM30.578 454.97l.715.175.167-.397 2.086-4.844.092-.218-.298-.18-11.104-6.938-.161-.102-.226-.037-6.967-1.134-1.615-.261.937.838 3.557 3.183-3.166.28-8.654-2.687-.83-.257-.131.493-.625 2.374L.84 447l-.84.415 1.147.28 29.432 7.275zm216.617-127.81l1.024.525.108-.72.262-1.7.03-.204-3.722-2.149-.456.153-2.395.8-.771.26.762.39 5.158 2.646zm96.753-59.506l.11.004.084-.003 2.185-.148.436-.029.078-.252.536-1.763.119-.382-.68-.129-3.098-.608-.28-.051-.24.066-2.062.592-.325.093.008.217.002 1.709v.4l.696.061 2.431.223zm-192.413 107.93l-.247.012-1.852.077-.691.026.155.412.444 1.148.04.109.124.088 1.055.754.22.152.322.024 2.171.15.613.039.075-.339.293-1.326.064-.277-.435-.166-2.128-.796-.223-.086zm188.157-114.907l.228.285.812.987.178.213.386.053 2.52.342.854.12-.084-.5-.237-1.317-.025-.15-.19-.118-1.34-.85-.497-.313-.492.234-1.752.84-.361.174zm150.01-90.142l-.424.18-5.536 2.36-.924.392 1.177.314 3.479.921.208.06.221-.024 3.771-.363.292-.027.128-.147 1.28-1.435.257-.286-.472-.238-2.993-1.482-.464-.225zM368.457 237.69l.392.566 1.095 1.609.49.028 1.93.129.705.05-.02-.41-.082-1.297-.021-.411-.715-.04-2.76-.165-1.014-.06zm126.708-77.118l5.942 3.43.422-.401 3.712-3.54.044-.043.024-.054 1.824-4.264.151-.355-.625-.166-5.685-1.464-.374-.097-.3.124-3.495 1.465-2.887.975-.391.131.128.278 1.218 2.615.256 1.21.036.156zM370.55 235.391l.08-.252.426-1.282.121-.355-.633-.145-3.169-.759-.772-.183-.115.443-.558 2.185-.147.569 1.005-.049 3.303-.148.46-.024zm125.382-73.568l-2.774 1.601-.496-.202-5.312-2.098-.335-.134-.039-.218-.184-1.567-.052-.37.64-.004 3.928-.035.379-.002.254.181 3.57 2.545.42.303zM347.52 242.847l.305.142.345-.047 3.686-.471 1.015-.128-.754-.512-1.908-1.28-.206-.135-.299-.029-3.45-.284-.703-.057.001.4-.014 1.248.003.214.301.149 1.678.79zm114.949-77.468l.163.078.204.024 4.739.51 3.863 1.415.364.134.34-.101 5.412-1.59.109-.03.073-.052 3.404-2.384.419-.293-.569-.286-4.218-2.121 2.452-1.082.333-.148-.14-.26-1.738-3.228 2.72-.96.322-.112-.047-.24-.5-2.225-.09-.383-.666-.028-3.61-.148-.187-.006-.148.042-4.695 1.367-5.578-.494.954-1.029 5.57.88.288.047.237-.084 5.049-1.8.666-.235-.626-.378-5.337-3.2-.153-.089-.188-.04-4.02-.75-.368-.068-.269.134-5.174 2.568-.173.087-.022.14-.434 2.477-4.375 1.73-.57.223.497.354 2.712 1.923.217.16.338.016 4.44.244.242.93-6.488.085h-.28l-.17.123-3.916 2.819-.349.249.414.273 3.794 2.555.052.03.063.028 4.648 2.2zm-1.436 4.243l.163.06.174.015 5.892.505.511.04.16-.255.849-1.328.255-.405-.77-.165-5.88-1.21-.19-.042-.184.02-4.76.515-1.547.168 1.44.56 3.887 1.522zm-99.195 51.88l.262.09 5.225 1.845.968.347.035-.609.313-4.712 4.08-2.758.164-.11-.388-3.146-.026-.15-.193-.129-6.14-3.902-.195-.12-.26-.032-6.322-.694-.799-.087.051.462.286 2.28-1.564-.096-3.488-2.174-.9-.571-.272.675-1.391 3.495-.09.212.277.177 7.41 4.898 2.864 4.644.093.164zm16.768-9.272l.403.156.37-.126 4.31-1.453.8-.269-.823-.39-1.677-.79-.288-.132-.328.032-5.833.573-.876.089.495.482.661.653.092.095.163.06 2.531 1.02zm166.278-102.36l.427-.035.08-.242.572-1.726.1-.3-.494-.173-3.17-1.1-.593-.207-.324.298-1.605 1.485-.205.188.2.217 1.43 1.547.275.295.532-.04 2.775-.208zm-208.95 98.239l1.519 1.106-.522.624-5.177-1.876-.78-.28-.218.46-2.57 5.414-.07.147.122.146 4.011 4.822.053.064.094.055 1.892 1.186.347.217.435-.08 3.325-.612 7.797-.01.045.001.03.001 7.914-.536.418-.03.091-.229.833-2.033.078-.193-.233-.169-3.024-2.289-.209-.155-.326-.027-3.521-.317-1.593-3.043-.056-.1-.122-.08-3.797-2.463-.23-.15-.328-.011-5.76-.191-1.405-.047.938.678zm135.007-69.244l-.877-1.56-.143-.252.313-.15 3.99-1.91-.502-2.413-.129-.618 1.023.259 6.253 1.554.338.085.13.193 3.078 4.921.153.241-.283.16-9.546 5.37-.297.168-.421-.107-5.09-1.248-1.12-.273.794-.417 2.198-1.151-1.691-1.266-.4-.299 2.229-1.287zM321.614 219.09l.232.091.261-.019 5.858-.381.424-.027.091-.236.817-2.128.057-.154-.152-.156-1.988-1.954-.294-.29.135.002.128-.24 3.05-5.588.13-.239-2.807-1.62.857-2.181.148-.365-.65-.154-3.127-.744-6.628-2.043-.177-.05-.18-.003-5.655-.045-.666-.003.048.385.38 3.048-.587 2.473-.065.268.414.171 3.84 1.546 1.317 3.572.047.138 2.74 1.582.316.004 6.662.083.031.001-.34.076-7.043 1.583-.284.065-.069.173-.696 1.747-.118.297.49.181 3.053 1.134zm-30.267 15.654l.285.012.195-.108 2.166-1.187.505-.278-.592-.316-2.271-1.201-.174-.092-.211-.028-3.685-.446-.561-.07-.164.297-.865 1.565-.106.194.229.183 1.406 1.135.225.189.378.014 3.24.137zm160.801-98.463l.491-.167-.3-.334-1.56-1.75-.339-.383-.627.148-2.833.658-.67.156.43.401 2.028 1.902.413.383.6-.206 2.367-.808zM309.59 206.626l.92-.345-1.074-.356-5.121-1.7-.485-.16-.337.204-3.169 1.934-.394.24.415.29 2.64 1.89.447.317.524-.198 5.634-2.116zm-27.061 13.742l.389.19.41-.11 2.677-.731.17-.047.088-.093 1.51-1.626.37-.398-.802-.2-4.527-1.152-.174-.041h-.16l-3.063.075-.615.02.036.352.118 1.376.019.138.165.12 1.83 1.33.056.04.048.028 1.455.73zm-35.35 19.448l-.095-.275-.465-.09-2.857-.537-1.022-.19.195.596.502 1.513.095.301.523.073 2.842.418.967.142-.199-.557-.486-1.394zm2.294-7.824l-.563-.18-3.447-1.099-.299-.096-.293.06-4.132.843-.39.08-.005.244-.065 2.74-.013.18.223.137 1.8 1.149.238.155.342.002 4.14.054.481.006.116-.256 1.713-3.692.154-.327zm-1.452-2.002l.248.33.748.984.094.131.214.08 2.929 1.14.516.196.364-.223 3.942-2.405.252-.152-.127-.218-1.48-2.748-.13-.246-.424-.074-3.91-.703-1.07-.194.265.63 1.039 2.392-2.974.924-.496.156zm-16.706 8.542l.065.156.724 1.642.15.35.6.015 3.224.069.631.016.001-.365.006-1.814.207.595.133.391.676-.009 2.267-.025.463-.004.108-.252.805-1.88.07-.172-.185-.166-2.205-1.944-.41-.356-.571.18-1.99.635-.38.12.096.268.545 1.572-.259-.039-2.843-.418-.49-.07-.219.23-1.099 1.15-.12.125zm-8.217-1.771l-.728-.2-.183.413-1.043 2.405-.174.4.727.14 4.881.916.876.165-.045-.51-.19-2.336-.019-.282-.464-.123-3.638-.988zm21.949-8.752l-.673-.014-3.01-.064-.761-.015.145.44.67 2.06.16.5.801-.123 2.739-.424.51-.079-.08-.318-.398-1.572-.103-.39zm-28.17 13.595l.403.386 1.178 1.122.29.286.52-.056 2.452-.258 1.112-.114-.844-.538-2.022-1.278-.39-.242-.461.116-1.607.415-.632.161zm15.488-7.622l.19.017.165-.041 5.12-1.283.717-.181-.53-.408-2.747-2.147-.245-.192-.389-.004-7.46-.068-.555-.006-.06.314-.55 3.02-.087.443.784.062 5.647.474zm-8.425.58l.408.755.54.974.084.167.252.095 2.286.87.94.364.093-.6.167-1.127.049-.33-.562-.137-2.987-.722-1.27-.308zm22.635-10.546l.698.224.25-.382.956-1.453.225-.337-.6-.202-3.24-1.089-.854-.29-.13.52-.414 1.656-.081.3.498.161 2.692.892zm-45.811 12.899l.216.082.24-.006 3.296-.102.267-.007.168-.115 2.117-1.463 2.712-.048.668-.013-1.649 1.29-.056.044-.03.05-.606 1.036-3.384.985-.714.208.588.399 2.15 1.462.23.159.332.013 3.933.164 4.445.477 1.067.114-.376-.6-.646-1.043-.095-.149-.23-.09-2.43-.961 1.42-1.415 4.244-1.091.377-.097-.033-.249-.318-2.52-.042-.38-.664-.052-4.284-.359-.176-.016-.168.039-2.205.502-.346.08-.02.218-.18 1.68-.113.088-.116-.39-.366-1.332-.115-.39-.674-.006-3.934-.046-.392-.005-.164.194-.997 1.2-6.083.514-1.718.147 1.597.59 3.257 1.21zm30.107-8.918l.258.106.285-.022 3.383-.28.671-.055-.19-.398-.842-1.829-.11-.233-.406-.09-3.51-.804-.682-.156-.174.376-.98 2.11-.134.288.466.192 1.965.795zm2.107-4.517l.128.022h.117l1.962.028.583.006.036-.336.144-1.37.047-.465-.82-.024-3.846-.096-.607-.02-.025.352-.07 1.071-.03.34.582.115 1.8.377zm-16.55 8.462l.827.112-.053-.48-.235-1.87-.74-.01-3.94-.041-.99-.01.447.546.851 1.052.18.214.39.055 3.264.432zM512.59 53.881l.77.07-.055-.448-.184-1.456-.02-.123-.127-.107-6.95-5.694-2.157-3.234-.162-.246-.442-.051-5-.635-.394-.05-.233.163-4.426 3.076-.2.14.092.198 2.155 4.625.054.124 4.306 2.486.262.024 12.711 1.138z" fill="#fff"/></svg><svg preserveAspectRatio="xMidYMid" width="31" height="8" viewBox="-2 -2 31 8" id="nav-arrow" x="306" y="603" xmlns="http://www.w3.org/2000/svg"><defs><style>.azcls-2{fill:#f2264d}</style></defs><path d="M26 2v1h-1V2H0V1h25V0h1v1h1v1h-1z" id="azpath-1" class="azcls-2" fill-rule="evenodd"/></svg><svg preserveAspectRatio="xMidYMid" width="31" height="8" viewBox="-2 -2 31 8" id="nav-arrow-gray" x="275" y="603" xmlns="http://www.w3.org/2000/svg"><defs><style>.bacls-2{fill:#ccc}</style></defs><path d="M26 2v1h-1V2H0V1h25V0h1v1h1v1h-1z" id="bapath-1" class="bacls-2" fill-rule="evenodd"/></svg><svg width="31" height="7" viewBox="-2 -2 31 7" id="news-pagination-left" x="337" y="603" xmlns="http://www.w3.org/2000/svg"><defs><style>.bbcls-1{fill:#fff;fill-rule:evenodd}</style></defs><path class="bbcls-1" d="M27 2H2v1H1V2H0V1h1V0h1v1h25v1z"/></svg><svg viewBox="-2 -2 39 39" fill-rule="evenodd" clip-rule="evenodd" stroke-linejoin="round" stroke-miterlimit="1.414" width="39" height="39" id="phone" x="40" y="744" xmlns="http://www.w3.org/2000/svg"><path d="M27.199 17.48c0 .46.344.919.919.919.574 0 .919-.344.919-.919 0-6.317-5.169-11.486-11.487-11.486-.459 0-.919.345-.919.919 0 .574.345.919.919.919 5.284-.115 9.649 4.25 9.649 9.648zm-10.568-5.973c0 .46.345.919.919.919a4.903 4.903 0 0 1 4.939 4.94c0 .459.345.919.919.919.575 0 .919-.345.919-.919a6.667 6.667 0 0 0-6.662-6.663c-.689 0-1.034.345-1.034.804zM17.435.595c-.459 0-.919.345-.919.919 0 .575.345.919.919.919 8.271 0 15.048 6.777 15.048 15.047 0 .46.344.919.918.919.575 0 .919-.344.919-.919C34.206 8.176 26.739.595 17.435.595zm4.825 20.102a.878.878 0 0 0-.575-.23.878.878 0 0 0-.574.23l-1.838 1.838a1.803 1.803 0 0 1-2.527 0l-4.25-3.906a1.803 1.803 0 0 1 0-2.527l2.068-2.067a.903.903 0 0 0 0-1.264l-8.5-8.385a.878.878 0 0 0-.575-.23.878.878 0 0 0-.574.23c-.115.115-2.757 2.757-3.331 3.446C-.024 9.44-.254 12.771.895 15.643c2.527 6.317 10.912 14.013 17.919 18.263.574.345 1.952.689 3.331.689 1.263 0 3.101-.229 4.709-1.608 1.493-1.263 3.216-3.101 3.331-3.216.345-.345.345-.919 0-1.149l-7.925-7.925zm3.446 10.912c-1.149 1.034-2.527 1.148-3.561 1.148-1.264 0-2.298-.344-2.412-.459-7.926-4.709-15.163-11.946-17.23-17.345-.919-2.412-.574-5.054.23-5.973l2.756-2.756 7.122 7.121-1.493 1.494a3.465 3.465 0 0 0 0 4.939l4.25 3.905c1.263 1.264 3.561 1.264 4.939 0l1.263-1.263 6.663 6.662c-.575.804-1.609 1.838-2.527 2.527z" fill="#333" fill-rule="nonzero"/></svg><svg width="16" height="16" viewBox="-2 -2 16 16" id="red-cross" x="635" y="640" xmlns="http://www.w3.org/2000/svg"><defs><style>.bdcls-1{fill:#f33357;fill-rule:evenodd}</style></defs><path class="bdcls-1" d="M6.69 6l5.17 5.172a.484.484 0 0 1 0 .686.5.5 0 0 1-.35.142.492.492 0 0 1-.34-.142L6 6.685.827 11.858a.485.485 0 0 1-.685-.686L5.31 6 .142.827A.484.484 0 0 1 .827.142L6 5.314 11.17.142a.489.489 0 0 1 .69 0 .483.483 0 0 1 0 .685z"/></svg><svg viewBox="-2 -2 49 47" fill-rule="evenodd" clip-rule="evenodd" stroke-linejoin="round" stroke-miterlimit="1.414" width="49" height="47" id="scheme-circuits" x="175" y="640" xmlns="http://www.w3.org/2000/svg"><g fill-rule="nonzero"><path d="M2.153 27.843L22.561 41.01 42.97 27.843 22.561 14.676 2.153 27.843zm20.408 14.7a.704.704 0 0 1-.379-.112l-21.7-14a.7.7 0 0 1 0-1.176l21.7-14a.7.7 0 0 1 .759 0l21.7 14a.7.7 0 0 1 0 1.176l-21.7 14a.707.707 0 0 1-.38.112" fill="#363f40"/><path d="M2.153 21.543L22.561 34.71 42.97 21.543 22.561 8.376 2.153 21.543zm20.408 14.7a.704.704 0 0 1-.379-.112l-21.7-14a.7.7 0 0 1 0-1.176l21.7-14a.7.7 0 0 1 .759 0l21.7 14a.7.7 0 0 1 0 1.176l-21.7 14a.707.707 0 0 1-.38.112" fill="red"/><path d="M2.153 15.243L22.561 28.41 42.97 15.243 22.561 2.076 2.153 15.243zm20.408 14.7a.704.704 0 0 1-.379-.112l-21.7-14a.7.7 0 0 1 0-1.176l21.7-14a.7.7 0 0 1 .759 0l21.7 14a.7.7 0 0 1 0 1.176l-21.7 14a.707.707 0 0 1-.38.112" fill="#363f40"/><path fill="#363f40" d="M21.861 19.443h1.4v1.4h-1.4zM21.861 16.643h1.4v1.4h-1.4zM21.861 22.243h1.4v1.4h-1.4zM24.661 19.443h1.4v1.4h-1.4zM27.461 20.843h1.4v1.4h-1.4zM16.261 20.843h1.4v1.4h-1.4zM24.661 22.243h1.4v1.4h-1.4zM19.061 19.443h1.4v1.4h-1.4zM19.061 22.243h1.4v1.4h-1.4zM21.861 25.043h1.4v1.4h-1.4zM43.561 35.543h1.4v1.4h-1.4zM43.561 32.743h1.4v1.4h-1.4zM43.561 38.343h1.4v1.4h-1.4zM43.561 41.143h1.4v1.4h-1.4zM43.561 3.343h1.4v1.4h-1.4zM43.561.543h1.4v1.4h-1.4zM43.561 6.143h1.4v1.4h-1.4zM43.561 8.943h1.4v1.4h-1.4zM.161 35.543h1.4v1.4h-1.4zM.161 32.743h1.4v1.4h-1.4zM.161 38.343h1.4v1.4h-1.4zM.161 41.143h1.4v1.4h-1.4zM.161 3.343h1.4v1.4h-1.4zM.161.543h1.4v1.4h-1.4zM2.961.543h1.4v1.4h-1.4zM5.761.543h1.4v1.4h-1.4zM8.561.543h1.4v1.4h-1.4zM11.361.543h1.4v1.4h-1.4zM14.161.543h1.4v1.4h-1.4zM29.561.543h1.4v1.4h-1.4zM32.361.543h1.4v1.4h-1.4zM35.161.543h1.4v1.4h-1.4zM37.961.543h1.4v1.4h-1.4zM40.761.543h1.4v1.4h-1.4zM2.961 41.143h1.4v1.4h-1.4zM5.761 41.143h1.4v1.4h-1.4zM8.561 41.143h1.4v1.4h-1.4zM11.361 41.143h1.4v1.4h-1.4zM14.161 41.143h1.4v1.4h-1.4zM29.561 41.143h1.4v1.4h-1.4zM32.361 41.143h1.4v1.4h-1.4zM35.161 41.143h1.4v1.4h-1.4zM37.961 41.143h1.4v1.4h-1.4zM40.761 41.143h1.4v1.4h-1.4zM.161 6.143h1.4v1.4h-1.4zM.161 8.943h1.4v1.4h-1.4z"/></g></svg><svg viewBox="-2 -2 51 47" fill-rule="evenodd" clip-rule="evenodd" stroke-linejoin="round" stroke-miterlimit="1.414" width="51" height="47" id="screen-tweak" x="124" y="640" xmlns="http://www.w3.org/2000/svg"><g fill-rule="nonzero"><path d="M9.078 19.359l5.069 2.816v-5.584l-5.069-2.816v5.584zm5.794 4.771a.723.723 0 0 1-.352-.092l-6.517-3.62a.725.725 0 0 1-.373-.633v-7.241a.724.724 0 0 1 1.076-.633l6.517 3.62c.23.128.373.37.373.633v7.242a.724.724 0 0 1-.724.724" fill="red"/><path d="M15.223 24.039l-.703-1.266 6.145-3.414v-5.584l-5.442 3.022-.703-1.265 6.517-3.621a.724.724 0 0 1 1.076.633v7.241a.724.724 0 0 1-.373.633l-6.517 3.621z" fill="red"/><path d="M21.037 13.177l-6.166-3.425-6.165 3.425-.703-1.266L14.52 8.29a.726.726 0 0 1 .703 0l6.517 3.621-.703 1.266z" fill="red"/><path fill="#363f40" d="M25.009 11.096h14.483v1.448H25.009zM25.009 15.44h14.483v1.448H25.009zM25.009 19.785h14.483v1.448H25.009z"/><path fill="#363f40" d="M27.906 10.371h1.448v2.897h-1.448zM35.147 14.716h1.448v2.897h-1.448zM30.803 19.061h1.448v2.897h-1.448z"/><path d="M3.285 1.682A1.45 1.45 0 0 0 1.837 3.13v28.966c0 .798.65 1.448 1.448 1.448h40.552a1.45 1.45 0 0 0 1.448-1.448V3.13a1.45 1.45 0 0 0-1.448-1.448H3.285zm40.552 33.31H3.285a2.9 2.9 0 0 1-2.896-2.896V3.13A2.9 2.9 0 0 1 3.285.233h40.552a2.9 2.9 0 0 1 2.897 2.897v28.966a2.9 2.9 0 0 1-2.897 2.896" fill="#363f40"/><path d="M28.644 41.651l-1.448-7.241 1.42-.284 1.448 7.241-1.42.284zM18.478 41.651l-1.42-.284 1.448-7.241 1.42.284-1.448 7.241z" fill="#363f40"/><path fill="#363f40" d="M14.147 40.785h18.828v1.448H14.147zM22.837 30.647h1.448v1.448h-1.448zM4.734 27.751h37.655V4.578H4.734v23.173zm39.103 1.448H3.285V3.13h40.552v26.069z"/></g></svg><svg width="20" height="40" viewBox="-2 -2 20 40" id="scroll-mouse" x="20" y="744" xmlns="http://www.w3.org/2000/svg"><defs><style>.bgcls-1{fill-rule:evenodd}</style></defs><path id="bgRounded_Rectangle_7_copy" data-name="Rounded Rectangle 7 copy" class="bgcls-1" d="M584 3146a8 8 0 0 1-8-8v-11a8 8 0 0 1 16 0v11a8 8 0 0 1-8 8zm7-18.59a7.011 7.011 0 1 0-14 0v10.18a7.011 7.011 0 1 0 14 0v-10.18zm-7-.41a1 1 0 0 1-1-1v-2a1 1 0 0 1 2 0v2a1 1 0 0 1-1 1zm-4.487 22.42a.992.992 0 0 1 1.414.02l3.017 3.14 3.224-3.29a1.1 1.1 0 0 1 1.517-.02 1.041 1.041 0 0 1 .02 1.49l-3.84 3.91a1.073 1.073 0 0 1-1.319.15 1.013 1.013 0 0 1-.473-.26l-3.58-3.73a1 1 0 0 1 .02-1.41z" transform="translate(-576 -3119)"/></svg><svg width="20" height="40" viewBox="-2 -2 20 40" id="scroll-mouse-white" y="744" xmlns="http://www.w3.org/2000/svg"><defs><style>.bhcls-1{fill-rule:evenodd;fill:#fff}</style></defs><path id="bhRounded_Rectangle_7_copy" data-name="Rounded Rectangle 7 copy" class="bhcls-1" d="M584 3146a8 8 0 0 1-8-8v-11a8 8 0 0 1 16 0v11a8 8 0 0 1-8 8zm7-18.59a7.011 7.011 0 1 0-14 0v10.18a7.011 7.011 0 1 0 14 0v-10.18zm-7-.41a1 1 0 0 1-1-1v-2a1 1 0 0 1 2 0v2a1 1 0 0 1-1 1zm-4.487 22.42a.992.992 0 0 1 1.414.02l3.017 3.14 3.224-3.29a1.1 1.1 0 0 1 1.517-.02 1.041 1.041 0 0 1 .02 1.49l-3.84 3.91a1.073 1.073 0 0 1-1.319.15 1.013 1.013 0 0 1-.473-.26l-3.58-3.73a1 1 0 0 1 .02-1.41z" transform="translate(-576 -3119)"/></svg><svg viewBox="-2 -2 10 13" fill-rule="evenodd" clip-rule="evenodd" stroke-linejoin="round" stroke-miterlimit="1.414" width="10" height="13" id="select-arrow-red" x="333" y="611" xmlns="http://www.w3.org/2000/svg"><g fill="#f2264d"><path d="M2.816 1.018a.359.359 0 0 1 .504 0l2.035 2.006a.359.359 0 0 1-.252.615H1.032a.359.359 0 0 1-.252-.615l2.036-2.006zM2.816 8.327a.36.36 0 0 0 .504 0l2.035-2.006a.36.36 0 0 0-.252-.615H1.032a.359.359 0 0 0-.252.615l2.036 2.006z"/></g></svg><svg width="13" height="20" viewBox="-2 -2 13 20" id="slider-arrow" x="558" y="640" xmlns="http://www.w3.org/2000/svg"><defs><style>.bjcls-1{fill:#eee;fill-rule:evenodd}</style></defs><path id="bjForma_1_copy_3" data-name="Forma 1 copy 3" class="bjcls-1" d="M740.277 2722.12l.6.6a.376.376 0 0 1 .121.28.37.37 0 0 1-.121.27l-6.725 6.73 6.725 6.73a.373.373 0 0 1 .12.27.378.378 0 0 1-.12.28l-.6.6a.379.379 0 0 1-.553 0l-7.6-7.6a.384.384 0 0 1 0-.56l7.6-7.6a.379.379 0 0 1 .553 0z" transform="translate(-732 -2722)"/></svg><svg width="13" height="20" viewBox="-2 -2 13 20" id="slider-arrow-black" x="571" y="640" xmlns="http://www.w3.org/2000/svg"><defs><style>.bkcls-1{fill:#181818;fill-rule:evenodd}</style></defs><path id="bkForma_1_copy_3" data-name="Forma 1 copy 3" class="bkcls-1" d="M740.277 2722.12l.6.6a.376.376 0 0 1 .121.28.37.37 0 0 1-.121.27l-6.725 6.73 6.725 6.73a.373.373 0 0 1 .12.27.378.378 0 0 1-.12.28l-.6.6a.379.379 0 0 1-.553 0l-7.6-7.6a.384.384 0 0 1 0-.56l7.6-7.6a.379.379 0 0 1 .553 0z" transform="translate(-732 -2722)"/></svg><svg width="13" height="20" viewBox="-2 -2 13 20" id="slider-arrow-black-right" x="545" y="640" xmlns="http://www.w3.org/2000/svg"><defs><style>.blcls-1{fill:#181818;fill-rule:evenodd}</style></defs><path id="blForma_1_copy_2" data-name="Forma 1 copy 2" class="blcls-1" d="M751.723 2721.12l-.6.6a.376.376 0 0 0-.121.28.37.37 0 0 0 .121.27l6.724 6.73-6.724 6.73a.373.373 0 0 0-.12.27.378.378 0 0 0 .12.28l.6.6a.379.379 0 0 0 .553 0l7.6-7.6a.384.384 0 0 0 0-.56l-7.6-7.6a.379.379 0 0 0-.553 0z" transform="translate(-751 -2721)"/></svg><svg width="13" height="20" viewBox="-2 -2 13 20" id="slider-arrow-right" x="532" y="640" xmlns="http://www.w3.org/2000/svg"><defs><style>.bmcls-1{fill:#eee;fill-rule:evenodd}</style></defs><path id="bmForma_1_copy_2" data-name="Forma 1 copy 2" class="bmcls-1" d="M751.723 2721.12l-.6.6a.376.376 0 0 0-.121.28.37.37 0 0 0 .121.27l6.724 6.73-6.724 6.73a.373.373 0 0 0-.12.27.378.378 0 0 0 .12.28l.6.6a.379.379 0 0 0 .553 0l7.6-7.6a.384.384 0 0 0 0-.56l-7.6-7.6a.379.379 0 0 0-.553 0z" transform="translate(-751 -2721)"/></svg><svg width="20" height="13" viewBox="-2 -2 20 13" id="vertical-black-arrow" x="295" y="611" xmlns="http://www.w3.org/2000/svg"><defs><style>.bncls-1{fill:#333;fill-rule:evenodd}</style></defs><path class="bncls-1" d="M8.624 8.755l7.12-6.817a.814.814 0 0 0 0-1.185l-.524-.5a.9.9 0 0 0-1.238 0L8 5.975 2.015.244a.907.907 0 0 0-1.238 0l-.524.5a.815.815 0 0 0 0 1.186l7.126 6.823a.91.91 0 0 0 1.245.002z"/></svg><svg width="20" height="13" viewBox="-2 -2 20 13" id="vertical-red-arrow" x="275" y="611" xmlns="http://www.w3.org/2000/svg"><defs><style>.bocls-1{fill:#f2264d;fill-rule:evenodd}</style></defs><path class="bocls-1" d="M8.624 8.755l7.12-6.817a.814.814 0 0 0 0-1.185l-.524-.5a.9.9 0 0 0-1.238 0L8 5.975 2.015.244a.907.907 0 0 0-1.238 0l-.524.5a.815.815 0 0 0 0 1.186l7.126 6.823a.91.91 0 0 0 1.245.002z"/></svg></svg>